<?xml version="1.0" encoding="utf-8"?>
<!-- Generator: Adobe Illustrator 19.2.0, SVG Export Plug-In . SVG Version: 6.00 Build 0)  -->
<svg version="1.1" xmlns="http://www.w3.org/2000/svg" xmlns:xlink="http://www.w3.org/1999/xlink" x="0px" y="0px"
	 viewBox="0 0 125 40" enable-background="new 0 0 125 40" xml:space="preserve">
<g id="bg" display="none">
	<rect display="inline" fill="#FFFFFF" width="125" height="40"/>
</g>
<g id="icons">
	<g>
		<g>
			<rect fill="#4967AA" width="111.545" height="40"/>
		</g>
		<g>
			<g>
				<path fill="#FFFFFF" d="M60.618,17.29c-1.464-0.156-2.73,0.287-3.801,1.575v-0.4l0,0v-6.95v-0.077v-0.469l-3.877,0.469v18.276
					h3.877V28.63c0.523,0.373,1.031,0.823,1.626,1.035c2.259,0.81,5.237,0.15,6.279-2.871c0.669-1.938,0.652-3.925,0.148-5.885
					C64.312,18.732,62.863,17.53,60.618,17.29z M61.197,25.206c-0.171,1.205-1.13,1.837-2.268,1.748
					c-0.285-0.022-0.542-0.081-0.773-0.171c-0.918-0.527-1.195-1.409-1.276-1.963c-0.001,0-0.002,0-0.002,0.001
					c-0.063-0.857-0.13-2.65,0.288-3.497c0.355-0.649,0.974-1.003,1.796-1.03c1.167-0.038,2.05,0.541,2.224,1.725
					C61.34,23.063,61.347,24.163,61.197,25.206z"/>
				<path fill="#FFFFFF" d="M74.357,17.516c-1.347-0.36-2.708-0.356-4.052,0.002c-2.013,0.536-3.362,1.809-3.796,3.835
					c-0.237,1.105-0.285,2.281-0.222,3.414c0.143,2.593,1.747,4.439,4.235,5.013c0.035,0.008,0.071,0.015,0.107,0.023h-0.001
					c0,0,0.007,0.001,0.018,0.004c0.096,0.019,0.191,0.037,0.288,0.052c0.032,0.003,0.065,0.005,0.097,0.008
					c0.001,0,0.002,0,0.003,0c0.121,0.022,0.265,0.039,0.418,0.051c0.487,0.052,1.107,0.089,1.625,0.028
					c0.004,0,0.005-0.001,0.008-0.001c0.026,0,0.053,0,0.079-0.002c2.57-0.134,4.519-1.754,5.088-4.239
					c0.312-1.363,0.312-2.733,0.01-4.097C77.789,19.465,76.49,18.087,74.357,17.516z M74.521,25.009
					c-0.013,0.081-0.026,0.16-0.045,0.24c-0.257,1.144-1.088,1.763-2.195,1.711c-1.191-0.054-2.008-0.75-2.122-1.94
					c-0.083-0.869-0.09-1.757-0.017-2.627c0.113-1.373,0.972-2.124,2.26-2.098c1.059,0.02,1.812,0.62,2.081,1.638
					C74.726,22.956,74.545,24.776,74.521,25.009z"/>
				<path fill="#FFFFFF" d="M16.163,17.452h-2.767v-1.84c0.202-1.739,3.075-1.409,3.075-1.409l0.001-0.119l-0.001-0.013v-2.857h0v0
					h-0.002c-0.099-0.024-5.715-1.356-6.831,2.918c0,0.001,0,0.002-0.001,0.003c-0.002,0.009-0.005,0.019-0.007,0.028
					c-0.175,0.534-0.163,2.982-0.161,3.29H7.07v3.273h2.547v8.902h3.709v-8.902h2.837l0.319-3.273L16.163,17.452z"/>
				<path fill="#FFFFFF" d="M25.007,19.018c-0.045-0.05-0.09-0.099-0.129-0.139v0c-0.006-0.006-0.011-0.012-0.017-0.018
					c-0.054-0.056-0.092-0.094-0.092-0.094l0,0c-0.873-0.888-1.203-1.109-1.887-1.311c-2.631-0.775-5.192,0.603-6.003,3.249
					c-0.498,1.626-0.505,3.3-0.213,4.947c0.631,3.567,3.284,4.761,6.111,4.172c0.867-0.181,1.512-0.721,2.11-1.473
					c0,0,0.054-0.066,0.12-0.194v1.569h3.618V17.466h-3.618L25.007,19.018L25.007,19.018z M24.689,25.188
					c-0.121,1.134-1.039,1.815-2.123,1.772c-1.111-0.043-1.846-0.638-2.086-1.704c-0.288-1.517,0.049-3.319,0.077-3.465
					c0.29-1.018,1.031-1.522,2.118-1.496c1.067,0.024,1.89,0.656,2.01,1.761C24.797,23.089,24.8,24.153,24.689,25.188z"/>
				<path fill="#FFFFFF" d="M39.675,28.848c-0.168-0.614-0.359-1.22-0.544-1.805l-0.175-0.651c0,0-4.534,2.177-5.242-1.959
					c-0.065-0.683-0.045-1.387,0.049-2.061c0.176-1.271,0.952-1.952,2.186-2.069c0.417-0.04,0.851-0.02,1.263,0.05
					c0.562,0.095,1.111,0.264,1.726,0.416c0.214-0.654,0.432-1.301,0.636-1.953c0.032-0.102,0.059-0.19,0.08-0.269h0l0.102-0.391
					c-0.025-0.052-0.087-0.106-0.17-0.159c0,0,0,0,0,0c-0.104-0.087-0.282-0.16-0.559-0.261c-0.111-0.041-0.222-0.077-0.334-0.111
					c-0.1-0.032-0.165-0.05-0.165-0.05h0c-1.191-0.341-2.414-0.367-3.657-0.236c-2.619,0.277-4.396,1.822-4.889,4.373
					c-0.259,1.342-0.247,2.701,0.05,4.047c0.445,2.016,1.667,3.319,3.653,3.901c1.296,0.38,2.625,0.399,3.946,0.193
					c0.556-0.087,1.353-0.375,1.925-0.58l0.218-0.077L39.675,28.848L39.675,28.848z"/>
				<path fill="#FFFFFF" d="M51.612,24.051c-0.017-0.849-0.006-1.702-0.126-2.536c-0.331-2.287-1.723-3.735-3.975-4.113
					c-0.859-0.144-1.768-0.125-2.642-0.041c-2.39,0.228-4.204,1.717-4.576,3.957c-0.226,1.359-0.255,2.802-0.072,4.166
					c0.276,2.053,1.275,3.361,3.005,3.989c0,0,0,0,0,0c0.008,0,0.016,0.002,0.023,0.003c-0.001,0.001,0,0.001-0.001,0.001
					c0.79,0.236,4.654,1.246,8.06-0.465l-0.137-0.501c-0.001,0.001-0.004,0.001-0.005,0.001c-0.158-0.669-0.347-1.331-0.526-1.994
					l-0.019-0.065c0,0-0.071,0.025-0.196,0.065c-0.003,0-0.006,0-0.009,0.001c-0.149,0.039-0.296,0.084-0.442,0.133
					c-0.027,0.009-0.054,0.017-0.081,0.025c-0.516,0.145-1.253,0.324-2.031,0.424c-0.653,0.066-1.313,0.069-1.979,0.012
					c-1.082-0.179-1.91-0.758-1.87-2.128h0.618c2.121,0,4.241,0,6.362,0c0.05,0,0.102,0,0.152,0l0,0.001c0,0,0.456-0.006,0.475-0.01
					c0,0,0-0.12,0-0.135L51.612,24.051z M48.125,22.38h-4.189c0.022-0.833,0.126-1.608,0.867-2.079
					c0.786-0.5,1.655-0.518,2.464-0.07C48.085,20.682,48.149,21.497,48.125,22.38z"/>
				<polygon fill="#FFFFFF" points="104.475,17.594 100.363,17.594 96.791,23.177 96.791,11.527 96.791,11.45 96.791,10.98 
					92.914,11.45 92.914,29.727 96.791,29.727 96.791,24.133 100.363,29.735 104.475,29.735 100.599,23.654 				"/>
				<path fill="#FFFFFF" d="M87.579,17.514c-1.347-0.361-2.708-0.356-4.052,0.002c-2.012,0.536-3.361,1.809-3.796,3.835
					c-0.237,1.106-0.285,2.281-0.222,3.414c0.143,2.593,1.747,4.44,4.234,5.013c0.036,0.008,0.072,0.015,0.108,0.023H83.85
					c0,0,0.006,0.001,0.017,0.004c0.096,0.019,0.192,0.037,0.289,0.051c0.032,0.003,0.065,0.006,0.097,0.008
					c0.001,0.001,0.002,0.001,0.003,0.001c0.122,0.022,0.265,0.039,0.417,0.051c0.488,0.052,1.109,0.089,1.625,0.028
					c0.003-0.001,0.004-0.001,0.008-0.002c0.027,0,0.053,0,0.078-0.002c2.57-0.134,4.52-1.755,5.089-4.239
					c0.312-1.363,0.312-2.733,0.011-4.097C91.01,19.462,89.712,18.085,87.579,17.514z M87.742,25.007
					c-0.013,0.081-0.026,0.16-0.045,0.24c-0.258,1.144-1.088,1.762-2.195,1.711c-1.191-0.056-2.008-0.751-2.122-1.941
					c-0.083-0.869-0.09-1.756-0.018-2.626c0.115-1.373,0.973-2.124,2.261-2.099c1.057,0.02,1.812,0.62,2.081,1.638
					C87.946,22.954,87.766,24.775,87.742,25.007z"/>
			</g>
		</g>
	</g>
</g>
</svg>
