<?xml version="1.0" encoding="utf-8"?>
<!-- Generator: Adobe Illustrator 24.0.0, SVG Export Plug-In . SVG Version: 6.00 Build 0)  -->
<svg version="1.1" id="Layer_1" xmlns="http://www.w3.org/2000/svg" xmlns:xlink="http://www.w3.org/1999/xlink" x="0px" y="0px"
	 viewBox="0 0 125 40" style="enable-background:new 0 0 125 40;" xml:space="preserve">
<style type="text/css">
	.st0{display:none;}
	.st1{display:inline;}
	.st2{fill-rule:evenodd;clip-rule:evenodd;fill:#333333;}
	.st3{fill:#619AA9;}
	.st4{clip-path:url(#SVGID_2_);fill:#00A0EE;}
	.st5{clip-path:url(#SVGID_4_);fill:#00A0EE;}
	.st6{clip-path:url(#SVGID_6_);fill:#00A0EE;}
	.st7{clip-path:url(#SVGID_8_);fill:#00A0EE;}
	.st8{clip-path:url(#SVGID_10_);fill:#00A0EE;}
	.st9{clip-path:url(#SVGID_12_);fill:#00A0EE;}
	.st10{clip-path:url(#SVGID_14_);fill:#00A0EE;}
	.st11{clip-path:url(#SVGID_16_);fill:#00A0EE;}
</style>
<g id="Layer_1_1_" class="st0">
	<g class="st1">
		<path class="st2" d="M70.9,10.3c0.2,0.2,0.1,0.5,0.1,0.8c0,4.6,0,9.1,0,13.7c0,0.2,0,0.5-0.1,0.8c-0.7,0.1-1.4,0-2.1,0
			c-0.2-0.4,0-0.8-0.2-1.2c-2.1,2-5.2,2-7.1,0c-0.7-0.7-1-1.5-1.3-2.5c-0.3-1.3-0.3-2.6,0-3.9c1.1-4.5,6-4.7,8.2-2.3
			c0.1-1.9-0.1-3.7,0.1-5.5C69.3,10.3,70.1,10.3,70.9,10.3z M68.5,20c0-0.8-0.1-1.5-0.4-2.2c-0.5-1-1.3-1.5-2.5-1.5
			c-1.2,0-2,0.5-2.5,1.5c-0.7,1.4-0.7,2.9-0.2,4.3c0.5,1.1,1.3,1.8,2.5,1.8c1.2,0,2.1-0.6,2.6-1.7C68.4,21.5,68.6,20.8,68.5,20z"/>
		<path class="st2" d="M114.1,29.7c0-0.2-0.1-0.4-0.1-0.6c0-4.6,0-9.2,0-13.8c0-0.2,0-0.4,0-0.7c0.8-0.1,1.5-0.1,2.2,0
			c0.2,0.4,0.1,0.7,0.2,1.1c0,0,0.1,0,0.1,0c2.3-2.3,6.2-1.7,7.7,1.3c1.1,2.2,1,4.5-0.1,6.7c-1.4,2.6-5.1,3.2-7.2,1.1
			c-0.1-0.1-0.2-0.1-0.2-0.2c-0.2,0.1-0.1,0.3-0.1,0.5c0,1.3,0,2.6,0,4c0,0.3,0,0.5-0.1,0.8C115.6,29.7,114.8,29.7,114.1,29.7z
			 M122.4,20.2c0-1-0.2-1.9-0.7-2.7c-1.1-1.7-3.9-1.6-4.8,0.3c-0.7,1.6-0.7,3.2,0.1,4.7c0.5,1,1.4,1.4,2.5,1.4c1.1,0,2-0.5,2.5-1.6
			C122.3,21.6,122.4,20.9,122.4,20.2z"/>
		<path class="st2" d="M105,25.5c-0.8,0.1-1.5,0-2.3,0c-0.2-0.3-0.2-0.5-0.2-0.8c0-2,0-4,0-6c0-0.2,0-0.3,0-0.5c0-1-0.4-1.7-1.1-1.9
			c-0.9-0.3-2,0-2.6,0.8c-0.5,0.6-0.6,1.3-0.6,2c0,1.9,0,3.7,0,5.6c0,0.3,0,0.5-0.1,0.8c-0.2,0.2-0.4,0.1-0.6,0.1
			c-1.3,0-2.7,0.1-4,0.2c-1,0.1-1.8-0.2-2.2-1.2c-0.9,0.7-1.9,1-3,1.2c-0.9,0.1-1.8,0-2.7-0.4c-1.2-0.5-1.9-1.6-1.9-3
			c0-1.4,0.7-2.3,2-2.8c1.1-0.4,2.3-0.5,3.5-0.7c0.4-0.1,0.9-0.1,1.3-0.3c0.4-0.1,0.7-0.4,0.7-0.9c0.1-0.5-0.1-0.9-0.5-1.2
			c-0.8-0.6-2.7-0.5-3.4,0.1c-0.4,0.3-0.6,0.8-0.7,1.2c-0.8,0-1.6,0-2.4,0c-0.1-1.3,0.6-2.5,1.9-3.1c1.9-0.8,3.8-0.9,5.7-0.1
			c1.2,0.5,1.9,1.5,1.8,2.9c0,1.8,0,3.5,0,5.3c0,0.3-0.1,0.6,0.2,0.9c0.6,0.2,1.2,0.1,1.9,0c0-3.1,0-6.1,0-9.2
			c0.8-0.1,1.6-0.1,2.3,0c0.2,0.4,0,0.9,0.1,1.3c2.5-2.2,4.8-2.2,6.4,0c0.1,0,0.1-0.1,0.2-0.1c1.2-1.5,2.8-1.8,4.6-1.4
			c1.4,0.3,2.3,1.3,2.3,2.8c0.1,2.7,0,5.4,0,8.1c0,0,0,0.1-0.1,0.2c-0.7,0.1-1.5,0-2.2,0c-0.2-0.3-0.2-0.5-0.2-0.8c0-2,0-3.9,0-5.8
			c0-0.5,0-1-0.1-1.5c-0.2-0.7-0.6-1.1-1.4-1.2c-1.8-0.2-2.7,0.7-2.7,2.6c0,1.9,0,3.9,0,5.8C105.1,25,105.2,25.2,105,25.5z
			 M91.3,20.2c-1,0.4-1.9,0.4-2.8,0.6c-0.4,0.1-0.9,0.2-1.3,0.4c-0.5,0.3-0.7,0.8-0.7,1.4c0,0.6,0.4,0.9,0.9,1.1
			c1,0.4,2,0.3,2.9-0.2c0.5-0.3,0.9-0.7,1-1.3C91.3,21.6,91.3,20.9,91.3,20.2z"/>
		<path class="st2" d="M39.7,17.9c-0.8,0-1.6,0-2.5,0c0.1-1.5,0.7-2.5,2-3.1c1.9-0.8,3.8-0.9,5.7-0.1c1.2,0.5,1.8,1.5,1.8,2.9
			c0,1.8,0,3.5,0,5.3c0,0.3-0.1,0.6,0.2,0.9c0.6,0.2,1.2,0.1,1.9,0c0-3.1,0-6.1,0-9.2c0.8-0.1,1.6,0,2.3,0c0.2,0.5,0,0.9,0.1,1.3
			c0.2,0,0.3-0.2,0.4-0.3c1.4-1.6,3.8-1.6,5.3-0.8c1.1,0.6,1.6,1.7,1.6,2.9c0.1,2.6,0,5.1,0,7.7c0,0,0,0.1-0.1,0.2
			c-0.7,0.1-1.5,0-2.3,0C56,25.3,56,25,56,24.8c0-1.9,0-3.8,0-5.7c0-0.1,0-0.3,0-0.5c0-1.5-0.6-2.3-1.7-2.4c-1.5-0.1-2.6,0.6-2.9,2
			c-0.1,0.4-0.1,0.7-0.1,1.1c0,1.8,0,3.6,0,5.5c0,0.2,0.1,0.5-0.1,0.7c-0.2,0.2-0.5,0.1-0.8,0.1c-1.3,0-2.5,0.1-3.8,0.2
			c-1,0.1-1.9-0.1-2.3-1.1c-0.3,0-0.4,0.2-0.6,0.3c-1.5,0.8-3.1,1.1-4.8,0.6c-1.5-0.5-2.3-1.6-2.2-3.1c0-1.5,0.8-2.5,2.3-3
			c1-0.3,2.1-0.4,3.2-0.5c0.4-0.1,0.8-0.1,1.2-0.2c0.5-0.2,0.7-0.4,0.8-0.9c0-0.5-0.1-1-0.6-1.2c-1.1-0.5-2.2-0.5-3.2,0
			C40,16.9,39.8,17.4,39.7,17.9z M44.2,20.2c-1,0.3-1.9,0.4-2.9,0.5c-0.4,0.1-0.8,0.2-1.2,0.4c-0.6,0.3-0.8,0.8-0.8,1.5
			c0,0.6,0.5,0.9,1,1.1c1,0.3,1.9,0.3,2.8-0.2c0.6-0.3,0.9-0.8,1-1.4C44.3,21.5,44.3,20.9,44.2,20.2z"/>
		<path class="st2" d="M80.6,21.4c0.8,0,1.6,0,2.5,0c-0.3,1.7-0.9,3.1-2.5,3.9c-3.7,2-7.8-0.5-8-4.7c0-0.8,0-1.6,0.2-2.4
			c0.7-2.9,3-4.1,5.7-4c0.7,0,1.3,0.2,1.9,0.5c1.3,0.6,2.1,1.5,2.4,2.9c0,0.2,0.1,0.4,0,0.6c-0.7,0.1-1.5,0-2.2,0
			c-0.2-0.1-0.2-0.2-0.3-0.4c-0.3-0.9-0.9-1.5-1.9-1.6c-1.2-0.1-2.2,0.1-2.8,1.2c-0.9,1.7-0.9,3.4,0,5.1c0.5,1,1.4,1.4,2.4,1.3
			c1.1-0.1,1.9-0.7,2.2-1.8C80.4,21.9,80.5,21.7,80.6,21.4z"/>
		<path class="st2" d="M35.3,17.1c-1.3-3.2-5.6-3.8-7.6-1.6c0,0-0.1,0.1-0.2,0c0-1.7,0-3.5,0-5.3c-0.8,0-1.6,0-2.5,0v15.2
			c0.8,0,1.6,0.1,2.3,0c0.2-0.4,0-0.8,0.2-1.1c1,1.1,1.8,1.4,3.4,1.5c2,0.1,3.6-0.9,4.4-2.7C36.2,21.2,36.2,19.2,35.3,17.1z
			 M33,22.3c-0.5,1.1-1.3,1.6-2.4,1.6c-1.1,0-2-0.4-2.5-1.4c-0.8-1.6-0.8-3.2,0-4.9c0.5-0.9,1.3-1.3,2.4-1.3c1.2,0,2,0.5,2.5,1.4
			C33.6,19.2,33.6,20.7,33,22.3z"/>
		<polygon class="st3" points="18,25.5 0,25.5 7,10.4 25,10.4 		"/>
	</g>
</g>
<g id="Layer_2_1_">
</g>
<g id="template" class="st0">
</g>
<g>
	<g>
		<defs>
			<rect id="SVGID_1_" y="7" width="125" height="25.7"/>
		</defs>
		<clipPath id="SVGID_2_">
			<use xlink:href="#SVGID_1_"  style="overflow:visible;"/>
		</clipPath>
		<path class="st4" d="M84.1,14.9c2.8,0,5,2.3,5,5s-2.3,5-5,5s-5-2.3-5-5C79,17.1,81.3,14.9,84.1,14.9 M84.1,11.6
			c-4.6,0-8.3,3.7-8.3,8.3s3.7,8.3,8.3,8.3c4.6,0,8.3-3.7,8.3-8.3C92.4,15.3,88.7,11.6,84.1,11.6"/>
	</g>
	<g>
		<defs>
			<rect id="SVGID_3_" y="7" width="125" height="25.7"/>
		</defs>
		<clipPath id="SVGID_4_">
			<use xlink:href="#SVGID_3_"  style="overflow:visible;"/>
		</clipPath>
		<path class="st5" d="M32.3,12.1v1.4c-1.4-1.2-3.3-1.9-5.3-1.9c-4.6,0-8.3,3.7-8.3,8.3s3.7,8.3,8.3,8.3c2,0,3.8-0.7,5.3-1.9v1.4
			h3.1V12.1H32.3z M27.2,25.1c-2.9,0-5.2-2.3-5.2-5.2c0-2.9,2.3-5.2,5.2-5.2c2.9,0,5.2,2.3,5.2,5.2S30,25.1,27.2,25.1"/>
	</g>
	<g>
		<defs>
			<rect id="SVGID_5_" y="7" width="125" height="25.7"/>
		</defs>
		<clipPath id="SVGID_6_">
			<use xlink:href="#SVGID_5_"  style="overflow:visible;"/>
		</clipPath>
		<path class="st6" d="M117.3,12.1v1.4c-1.4-1.2-3.3-1.9-5.3-1.9c-4.6,0-8.3,3.7-8.3,8.3s3.7,8.3,8.3,8.3c2,0,3.8-0.7,5.3-1.9v1.4
			h3.1V12.1H117.3z M112.2,25.1c-2.9,0-5.2-2.3-5.2-5.2c0-2.9,2.3-5.2,5.2-5.2c2.9,0,5.2,2.3,5.2,5.2S115.1,25.1,112.2,25.1"/>
	</g>
	<g>
		<defs>
			<rect id="SVGID_7_" y="7" width="125" height="25.7"/>
		</defs>
		<clipPath id="SVGID_8_">
			<use xlink:href="#SVGID_7_"  style="overflow:visible;"/>
		</clipPath>
		<path class="st7" d="M97.9,13c-1.8,1.1-3.3,3.2-3.3,6.8v7.9h3.3v-7.9c0-5.2,5.4-4.9,5.4-4.9v-3.3l0,0
			C103.2,11.6,100.3,11.5,97.9,13"/>
	</g>
	<g>
		<defs>
			<rect id="SVGID_9_" y="7" width="125" height="25.7"/>
		</defs>
		<clipPath id="SVGID_10_">
			<use xlink:href="#SVGID_9_"  style="overflow:visible;"/>
		</clipPath>
		<path class="st8" d="M51.2,13.2c-1.4-1-3.1-1.7-5-1.7s-3.6,0.6-5,1.7c-2,1.5-3.3,4-3.3,6.7v7.8h3.3v-1.2v-6.7c0-2.8,2.3-5,5-5
			s5,2.3,5,5v6.7v1.2h3.3v-7.8C54.6,17.1,53.3,14.7,51.2,13.2"/>
	</g>
	<g>
		<defs>
			<rect id="SVGID_11_" y="7" width="125" height="25.7"/>
		</defs>
		<clipPath id="SVGID_12_">
			<use xlink:href="#SVGID_11_"  style="overflow:visible;"/>
		</clipPath>
		<path class="st9" d="M71.9,7c-0.9,0-1.5,0.7-1.5,1.5v4.8c-1.4-1.2-3.3-1.9-5.3-1.9c-4.6,0-8.3,3.7-8.3,8.3s3.7,8.3,8.3,8.3
			c2,0,3.8-0.7,5.3-1.9v1.4h3.1V8.6V7H71.9z M65.3,25.1c-2.9,0-5.2-2.3-5.2-5.2c0-2.9,2.3-5.2,5.2-5.2c2.9,0,5.2,2.3,5.2,5.2
			C70.5,22.7,68.2,25.1,65.3,25.1"/>
	</g>
	<g>
		<defs>
			<rect id="SVGID_13_" y="7" width="125" height="25.7"/>
		</defs>
		<clipPath id="SVGID_14_">
			<use xlink:href="#SVGID_13_"  style="overflow:visible;"/>
		</clipPath>
		<path class="st10" d="M8.3,11.6c-2,0-3.8,0.7-5.3,1.9v-1.4H0v19.1v1.5h1.5c0.9,0,1.5-0.7,1.5-1.5v-4.9c1.4,1.2,3.3,1.9,5.3,1.9
			c4.6,0,8.3-3.7,8.3-8.3C16.7,15.3,13,11.6,8.3,11.6 M8.2,25.1c-2.9,0-5.2-2.3-5.2-5.2c0-2.9,2.3-5.2,5.2-5.2s5.2,2.3,5.2,5.2
			S11,25.1,8.2,25.1"/>
	</g>
	<g>
		<defs>
			<rect id="SVGID_15_" y="7" width="125" height="25.7"/>
		</defs>
		<clipPath id="SVGID_16_">
			<use xlink:href="#SVGID_15_"  style="overflow:visible;"/>
		</clipPath>
		<path class="st11" d="M123.5,12.1c-0.9,0-1.5-0.7-1.5-1.5s0.7-1.5,1.5-1.5c0.9,0,1.5,0.7,1.5,1.5C125,11.4,124.3,12.1,123.5,12.1
			 M123.5,9.2c-0.8,0-1.4,0.6-1.4,1.4c0,0.7,0.6,1.4,1.4,1.4c0.8,0,1.4-0.6,1.4-1.4C124.8,9.8,124.2,9.2,123.5,9.2 M123.9,11.4
			l-0.5-0.7h-0.3v0.7h-0.2V9.7h0.7c0.3,0,0.5,0.2,0.5,0.5c0,0.4-0.4,0.5-0.5,0.5l0.5,0.7L123.9,11.4L123.9,11.4z M123.6,9.8h-0.5
			v0.7h0.5c0.1,0,0.3-0.1,0.3-0.3C123.9,10,123.7,9.8,123.6,9.8"/>
	</g>
</g>
</svg>
