<?xml version="1.0" encoding="utf-8"?>
<!-- Generator: Adobe Illustrator 21.0.0, SVG Export Plug-In . SVG Version: 6.00 Build 0)  -->
<svg version="1.1" id="图层_1" xmlns="http://www.w3.org/2000/svg" xmlns:xlink="http://www.w3.org/1999/xlink" x="0px" y="0px"
	 viewBox="0 0 91 27.2" style="enable-background:new 0 0 91 27.2;" xml:space="preserve">
<style type="text/css">
	.st0{fill:#008AD4;}
</style>
<g>
	<path class="st0" d="M18.4,5c-1.6-0.9-3.5-1.3-5.3-1.2v0h0c-1.9,0.1-3.7,0.7-5.2,1.8C6,6.9,4.7,8.7,4.1,10.8
		c-0.6,1.9-0.5,3.9,0,5.8c0.7,2.1,2,3.9,3.8,5.2c1.6,1.1,3.6,1.7,5.5,1.8c2.1,0,4.2-0.6,5.9-1.9c1.7-1.2,3-3,3.6-5
		c0.6-2,0.6-4.2-0.1-6.2C22.1,8.1,20.5,6.2,18.4,5z M8.7,19c0.4-3.6,0.7-7.1,1.1-10.7c0.9,0,1.8,0,2.7,0c-0.3,3.6-0.8,7.1-1.1,10.7
		C10.5,19,9.6,19,8.7,19z M15.2,12.5c-0.3,0.3-0.5,0.6-0.5,1c0,0.5,0.4,0.8,0.6,1.2c1.1,1.4,2.1,2.8,3.2,4.2c-1.1,0-2.3,0-3.4,0
		c-0.9-1.2-1.7-2.5-2.6-3.8c-0.3-0.4-0.6-0.9-0.6-1.4c-0.1-0.8,0.3-1.5,0.8-2c0.9-0.9,1.9-1.8,2.8-2.7h0c0.3-0.2,0.5-0.5,0.8-0.7
		c1.1,0,2.1,0,3.2,0C18.1,9.7,16.6,11.1,15.2,12.5z"/>
	<path class="st0" d="M20.3,0.1H6.8C3.1,0.1,0,3.1,0,6.9v13.5c0,3.7,3,6.7,6.8,6.7h13.5c3.7,0,6.8-3,6.8-6.7V6.9
		C27,3.1,24,0.1,20.3,0.1z M23.9,17.9c-0.9,2.2-2.4,4-4.4,5.2c-1.8,1.1-3.8,1.7-5.9,1.7c-2.3,0-4.5-0.7-6.4-1.9
		c-1.5-1-2.8-2.4-3.6-4c-0.9-1.7-1.3-3.5-1.3-5.4c0-2.6,0.9-5.1,2.6-7.1c2-2.4,5-4,8.2-4.1v0c2.3-0.1,4.5,0.5,6.4,1.6
		c2.6,1.6,4.5,4.2,5.1,7.2C25,13.4,24.8,15.8,23.9,17.9z"/>
</g>
<g>
	<path class="st0" d="M46,15.5c0-0.5,0-1,0.1-1.4c-0.4,0-0.7,0.1-1.1,0.1h-3.6c-0.4,0-0.6,0-1-0.1c0,0.4,0.1,0.8,0.1,1.3V18
		c0,0.6,0,1-0.1,1.4h1v-0.7h3.7v0.7h1c-0.1-0.4-0.1-1-0.1-1.5V15.5z M45.1,17.9h-3.7V15h3.7V17.9z"/>
	<path class="st0" d="M35.1,6.8c-0.6,0-1,0-1.4-0.1v1c0.4-0.1,0.8-0.1,1.4-0.1h0.6v1.7h-0.3c-0.7,0-1.1,0-1.4-0.1
		c0.1,0.5,0.1,0.8,0.1,1.5v7.3c0,0.7,0,1.2-0.1,1.5h0.9v-1h3.7v0.7h0.8c0-0.5-0.1-0.8-0.1-1.4v-7.2c0-0.7,0-0.9,0-1.4
		c-0.4,0-0.7,0-1.4,0h-0.2V7.6h0.6c0.5,0,1,0,1.3,0.1v-1c-0.4,0.1-0.8,0.1-1.4,0.1H35.1z M36.4,7.6h0.7v1.7h-0.7V7.6z M38.5,17.8
		h-3.7v-1.7h3.7V17.8z M38.5,15.4h-3.7v-5.3h0.8c0,2.1-0.2,2.9-0.8,3.8c0.2,0.2,0.4,0.4,0.5,0.6c0.5-0.7,0.7-1.2,0.8-2.1
		c0.1-0.6,0.1-0.8,0.1-2.3h0.7v3.1c0,0.6,0.1,0.6,1.1,0.6c0.1,0,0.2,0,0.4,0V15.4z M38.5,10.1v3c-0.1,0-0.5,0-0.5,0
		c-0.2,0-0.3,0-0.3-0.2v-2.8H38.5z"/>
	<path class="st0" d="M43.8,11.9V9.5h1.4c0.5,0,0.8,0,1.2,0.1v-1c-0.4,0.1-0.7,0.1-1.2,0.1h-1.4V7.8c0-0.6,0-1,0.1-1.3h-1
		c0.1,0.4,0.1,0.8,0.1,1.3v0.9h-1.4c0.1-0.6,0.2-0.9,0.3-1.6L41,6.9c-0.2,1.7-0.5,2.8-1.2,3.9c0.4,0.2,0.6,0.3,0.8,0.5
		c0.3-0.6,0.5-1.1,0.7-1.8h1.6v2.4h-1.7c-0.6,0-1,0-1.3-0.1v1c0.4-0.1,0.8-0.1,1.3-0.1h4.3c0.6,0,0.9,0,1.3,0.1v-1
		c-0.3,0-0.5,0.1-1.3,0.1H43.8z"/>
	<path class="st0" d="M55.2,8.3c0.2-0.4,0.3-0.6,0.4-0.9c0.2-0.6,0.2-0.6,0.3-0.7l-1-0.3c-0.1,0.7-0.4,1.4-0.9,2.2
		c-0.6,1-1,1.6-2,2.5c0.4,0.2,0.6,0.4,0.7,0.6c1-1,1.3-1.5,1.9-2.5H60c0,4.4,0,5.1-0.2,6.8c-0.2,2.5-0.4,2.8-1.5,2.8
		c-0.6,0-1.1,0-1.7-0.1c0.2,0.4,0.2,0.6,0.3,1c0.6,0,0.9,0,1.2,0c1.8,0,2.3-0.4,2.6-2.4c0.2-1.3,0.3-3.9,0.3-7.1
		c0-1.3,0-1.5,0.1-1.9c-0.4,0-0.8,0.1-1.3,0.1H55.2z"/>
	<path class="st0" d="M58.2,16.1c0-0.3,0-0.4,0-1V12c0-0.4,0-0.6,0-1c-0.3,0-0.6,0.1-1.2,0.1h-2c-0.7,0-0.9,0-1.2,0c0,0.4,0,0.5,0,1
		v4c0,0.4,0,0.8-0.1,1.3h1v-1.2h2.2C57.7,16.1,58,16.1,58.2,16.1z M54.8,15.3v-3.5h2.5v3.5H54.8z"/>
	<path class="st0" d="M52.5,7.6C52.8,7.3,52.9,7.2,53,7l-0.9-0.5c-0.3,0.6-0.7,1.2-1.5,2c-0.2-0.3-0.4-0.6-0.8-1.1
		c-0.4-0.5-0.4-0.5-0.5-0.6l-0.7,0.6c0.5,0.4,1,1,1.5,1.8c-0.6,0.5-1.1,0.9-2.1,1.4c0.3,0.3,0.4,0.4,0.6,0.7
		c0.9-0.6,1.3-0.9,1.9-1.3c0.3,0.6,0.5,1.2,0.6,2c-0.5,0.8-0.5,0.9-0.8,1.3c-0.7,0.9-1.3,1.5-2.4,2.2c0.3,0.3,0.4,0.4,0.6,0.8
		c1.4-1.1,2.1-1.9,2.8-3.1c0.1,0.7,0.1,1.2,0.1,1.8c0,1.4-0.1,2.6-0.3,3.3c-0.1,0.4-0.4,0.6-0.8,0.6c-0.4,0-0.9-0.1-1.7-0.4
		c0.1,0.4,0.1,0.6,0.1,1c0.8,0.1,1.1,0.2,1.6,0.2c0.7,0,1.1-0.2,1.4-0.6c0.3-0.6,0.5-2,0.5-3.9c0-2.5-0.3-4.2-1.2-5.9
		C51.7,8.6,52,8.3,52.5,7.6z"/>
	<path class="st0" d="M73.9,14.1c0-0.4,0-0.7,0.1-1.1c-0.5,0-0.9,0.1-1.3,0.1h-6.4c-0.5,0-0.8,0-1.3-0.1c0,0.4,0.1,0.8,0.1,1.1v4.3
		c0,0.5,0,0.9-0.1,1.3h1V19h7.1v0.7h1c-0.1-0.4-0.1-0.8-0.1-1.3V14.1z M72.9,18.2h-7.1v-1.8h7.1V18.2z M72.9,15.5h-7.1v-1.7h7.1
		V15.5z"/>
	<path class="st0" d="M71.6,11c0.4-0.6,0.6-1.3,1.1-2.4h0.7c0.6,0,1.1,0,1.5,0.1v-1c-0.4,0.1-0.8,0.1-1.6,0.1H70
		C70,7.7,70,7.7,69.9,7.6C69.5,7,69.4,6.8,69,6.3l-0.8,0.5c0.4,0.5,0.5,0.6,0.8,1h-3.7c-0.7,0-1.1,0-1.5-0.1v1
		c0.5,0,0.8-0.1,1.4-0.1H66c0.5,0.9,0.8,1.7,1,2.4h-2.3c-0.9,0-1.3,0-1.7-0.1v1c0.4-0.1,0.9-0.1,1.7-0.1h9.6c0.9,0,1.3,0,1.7,0.1v-1
		C75.6,11,75.1,11,74.2,11H71.6z M67.9,11c-0.5-1.3-0.7-1.8-1-2.4h4.8c-0.4,1-0.7,1.7-1.1,2.4H67.9z"/>
	<path class="st0" d="M90.2,13.2v-1.1c-0.4,0.1-0.9,0.1-1.6,0.1h-3.8v-1.9c0-0.6,0-0.9,0.1-1.2h-1.2c0.1,0.4,0.1,0.8,0.1,1.2v1.9
		h-4.2c0.4-1.9,0.5-2.1,0.7-4.1c0.6,0,0.7,0,1.5,0c0.7,0,1.1,0,2.3-0.1c2.2-0.1,3-0.2,4.2-0.5c0.4-0.1,0.4-0.1,0.5-0.1l-0.8-0.9
		c-0.4,0.2-1,0.3-1.7,0.4C85,7,82.8,7.2,80.9,7.2c-0.6,0-1.1,0-1.4-0.1c0,1-0.3,3.5-0.6,4.5c-0.1,0.5-0.2,0.6-0.6,0.7l0.3,0.9
		c0.4-0.1,0.9-0.1,1.2-0.1h4v5.2c0,0.3-0.1,0.4-0.7,0.4c-0.5,0-1,0-1.6-0.1c0.2,0.4,0.2,0.6,0.2,1c0.5,0,1.1,0.1,1.4,0.1
		c1.2,0,1.6-0.2,1.6-1.1v-5.3h3.9C89.4,13.1,89.8,13.1,90.2,13.2z"/>
	<path class="st0" d="M81.1,14.2c-0.6,1.2-1.1,1.8-1.7,2.5c-0.5,0.6-1,0.9-1.9,1.5c0.3,0.3,0.4,0.4,0.7,0.8c1.7-1.2,2.5-2.1,3.8-4.3
		L81.1,14.2z"/>
	<path class="st0" d="M86.8,14.2L86,14.7c1.5,1.5,2.6,2.8,3.6,4.3l0.8-0.7C89.2,16.8,88.1,15.6,86.8,14.2z"/>
</g>
</svg>
