<svg id="svg" version="1.1" xmlns="http://www.w3.org/2000/svg" xmlns:xlink="http://www.w3.org/1999/xlink" width="400" height="128.31858407079645" viewBox="0, 0, 400,128.31858407079645"><g id="svgg"><path id="path0" d="M62.417 9.450 C 59.463 9.650,54.223 10.591,51.377 11.432 C 50.574 11.669,49.443 12.003,48.865 12.173 C 35.277 16.169,22.031 27.642,15.679 40.917 C 9.896 53.001,9.039 67.958,13.432 80.083 C 13.665 80.725,13.991 81.625,14.158 82.083 C 16.561 88.705,21.916 96.521,27.722 101.882 C 57.917 129.766,108.318 117.818,121.086 79.750 C 133.389 43.069,103.037 6.700,62.417 9.450 M75.000 12.659 C 97.812 16.165,115.395 32.157,119.815 53.417 C 126.340 84.809,100.878 114.333,67.278 114.333 C 59.906 114.333,52.045 112.812,46.000 110.214 C 25.965 101.605,13.668 83.735,13.667 63.228 C 13.666 41.609,27.503 22.853,49.167 15.109 C 52.621 13.874,58.554 12.641,62.833 12.268 C 65.048 12.075,72.829 12.325,75.000 12.659 M61.678 25.333 C 59.973 25.955,58.773 27.114,58.023 28.862 C 57.679 29.667,56.333 34.020,56.333 34.332 C 56.333 34.466,56.893 34.493,58.292 34.426 C 60.803 34.304,70.507 33.973,72.250 33.949 C 79.980 33.842,86.234 46.520,80.966 51.618 C 76.305 56.129,67.009 48.672,67.001 40.416 C 67.000 39.239,67.475 37.182,67.852 36.727 C 68.214 36.291,67.790 36.238,64.833 36.352 C 63.229 36.413,60.754 36.472,59.333 36.483 C 55.447 36.514,55.630 36.448,55.187 37.976 C 54.756 39.460,54.101 41.660,53.666 43.083 C 53.498 43.633,53.197 44.646,52.997 45.333 C 52.797 46.021,52.349 47.521,52.001 48.667 C 51.347 50.814,50.634 53.186,50.245 54.500 C 49.555 56.829,47.693 63.021,46.909 65.593 C 46.408 67.238,46.406 67.334,46.875 67.331 C 48.213 67.324,61.341 66.808,64.059 66.655 C 67.458 66.465,67.982 66.493,69.417 66.946 C 78.749 69.893,84.161 84.250,78.046 89.839 C 72.764 94.666,63.024 88.972,60.262 79.442 C 59.234 75.895,59.378 73.074,60.748 69.938 C 60.879 69.639,60.785 69.631,58.401 69.730 C 57.034 69.788,53.629 69.917,50.833 70.017 C 45.918 70.194,45.333 70.272,45.333 70.751 C 45.333 70.867,45.042 71.927,44.685 73.106 C 43.400 77.357,41.970 82.111,41.558 83.500 C 41.327 84.279,41.001 85.367,40.833 85.917 C 40.665 86.467,40.364 87.479,40.164 88.167 C 39.964 88.854,39.515 90.354,39.167 91.500 C 38.818 92.646,38.366 94.138,38.162 94.815 C 37.408 97.318,37.729 98.854,39.175 99.667 L 39.917 100.083 50.667 100.134 C 66.071 100.205,70.724 99.504,77.495 96.087 C 87.099 91.241,94.206 80.652,93.607 72.084 C 93.167 65.809,89.642 61.788,83.099 60.098 C 80.815 59.507,80.812 59.487,82.917 58.757 C 93.378 55.126,100.329 43.009,97.183 33.883 C 95.669 29.490,92.444 26.993,86.417 25.548 L 84.583 25.108 73.583 25.056 C 62.965 25.005,62.552 25.014,61.678 25.333 " stroke="none" fill="#fafafa" fill-rule="evenodd"></path><path id="path1" d="M62.500 2.667 C 62.500 2.759,62.070 2.833,61.542 2.833 C 60.230 2.832,56.992 3.157,56.583 3.330 C 56.400 3.408,55.538 3.565,54.667 3.679 C 53.796 3.794,53.046 3.938,53.000 3.999 C 52.954 4.061,52.358 4.202,51.675 4.312 C 50.992 4.423,50.355 4.579,50.259 4.659 C 50.162 4.739,49.608 4.890,49.026 4.996 C 48.444 5.101,47.732 5.287,47.443 5.408 C 47.153 5.530,46.542 5.745,46.083 5.886 C 44.951 6.235,43.856 6.632,43.225 6.924 C 42.936 7.058,42.596 7.167,42.470 7.167 C 42.344 7.167,42.092 7.271,41.911 7.398 C 41.729 7.525,41.262 7.724,40.874 7.841 C 40.485 7.957,40.167 8.116,40.167 8.193 C 40.167 8.270,40.073 8.334,39.958 8.335 C 39.844 8.336,39.375 8.521,38.917 8.746 C 38.458 8.972,37.995 9.159,37.887 9.161 C 37.779 9.164,37.589 9.260,37.465 9.375 C 37.341 9.490,36.717 9.846,36.078 10.167 C 35.439 10.487,34.892 10.806,34.861 10.875 C 34.831 10.944,34.742 11.000,34.664 11.000 C 34.531 11.000,32.849 11.982,32.667 12.166 C 32.621 12.213,32.358 12.363,32.083 12.500 C 31.808 12.637,31.523 12.843,31.450 12.958 C 31.377 13.073,31.240 13.167,31.147 13.167 C 31.054 13.167,30.732 13.354,30.431 13.583 C 30.131 13.812,29.807 14.000,29.710 14.000 C 29.614 14.000,29.492 14.113,29.440 14.250 C 29.387 14.387,29.254 14.500,29.144 14.500 C 29.034 14.500,28.826 14.614,28.681 14.754 C 28.535 14.893,28.117 15.228,27.750 15.498 C 26.618 16.331,26.304 16.574,26.012 16.843 C 25.857 16.987,25.575 17.212,25.386 17.345 C 24.210 18.168,19.609 22.610,18.708 23.790 C 18.457 24.120,18.026 24.629,17.750 24.921 C 17.256 25.447,16.699 26.109,16.118 26.863 C 15.954 27.076,15.635 27.475,15.410 27.750 C 15.185 28.025,15.000 28.306,15.000 28.375 C 15.000 28.444,14.869 28.645,14.708 28.821 C 14.366 29.198,14.261 29.337,13.542 30.365 C 13.244 30.790,13.000 31.219,13.000 31.319 C 13.000 31.419,12.930 31.500,12.844 31.500 C 12.758 31.500,12.593 31.762,12.477 32.083 C 12.361 32.404,12.203 32.667,12.125 32.667 C 12.046 32.667,11.904 32.892,11.808 33.167 C 11.712 33.442,11.575 33.667,11.504 33.667 C 11.432 33.667,11.275 33.910,11.155 34.208 C 11.034 34.506,10.894 34.787,10.843 34.833 C 10.633 35.022,9.000 38.337,9.000 38.575 C 9.000 38.717,8.930 38.833,8.845 38.833 C 8.759 38.833,8.638 39.002,8.575 39.208 C 8.512 39.415,8.282 39.979,8.064 40.463 C 7.845 40.947,7.667 41.410,7.667 41.491 C 7.667 41.573,7.558 41.852,7.425 42.111 C 7.150 42.651,6.766 43.800,6.378 45.250 C 6.231 45.800,6.054 46.273,5.985 46.301 C 5.917 46.329,5.767 46.873,5.653 47.509 C 5.540 48.146,5.396 48.667,5.333 48.667 C 5.271 48.667,5.120 49.323,4.997 50.125 C 4.875 50.927,4.725 51.621,4.665 51.667 C 4.538 51.763,4.166 54.333,4.166 55.111 C 4.167 55.401,4.096 55.664,4.010 55.694 C 3.501 55.875,3.476 70.486,3.984 70.831 C 4.053 70.878,4.207 71.798,4.325 72.875 C 4.443 73.952,4.594 74.833,4.661 74.833 C 4.727 74.833,4.868 75.444,4.973 76.190 C 5.079 76.937,5.231 77.631,5.311 77.732 C 5.391 77.834,5.549 78.423,5.664 79.042 C 5.778 79.660,5.923 80.167,5.986 80.167 C 6.048 80.167,6.190 80.598,6.300 81.125 C 6.484 82.004,7.000 83.457,7.596 84.775 C 7.726 85.064,7.833 85.387,7.833 85.492 C 7.833 85.598,7.977 85.961,8.152 86.300 C 8.692 87.343,9.333 88.803,9.333 88.990 C 9.333 89.087,9.393 89.167,9.467 89.167 C 9.540 89.167,9.700 89.448,9.823 89.792 C 9.946 90.135,10.093 90.454,10.148 90.500 C 10.287 90.614,10.770 91.461,11.099 92.167 C 11.249 92.487,11.420 92.787,11.480 92.833 C 11.541 92.879,11.682 93.126,11.794 93.381 C 11.907 93.637,12.075 93.937,12.168 94.048 C 12.463 94.399,13.095 95.405,13.211 95.708 C 13.273 95.869,13.400 96.000,13.495 96.000 C 13.589 96.000,13.667 96.097,13.667 96.215 C 13.667 96.333,13.889 96.689,14.160 97.006 C 14.431 97.324,14.656 97.640,14.660 97.708 C 14.664 97.777,14.798 97.972,14.958 98.141 C 15.119 98.311,15.400 98.662,15.583 98.922 C 15.767 99.182,16.104 99.625,16.333 99.906 C 16.562 100.187,16.825 100.515,16.917 100.634 C 18.389 102.554,22.580 106.811,24.942 108.786 C 25.295 109.081,25.844 109.549,26.162 109.828 C 26.480 110.106,26.819 110.333,26.914 110.333 C 27.009 110.333,27.180 110.483,27.295 110.667 C 27.409 110.850,27.577 111.000,27.668 111.000 C 27.759 111.000,27.978 111.131,28.155 111.292 C 28.685 111.773,28.917 111.944,29.344 112.168 C 29.567 112.286,29.810 112.484,29.883 112.608 C 29.957 112.732,30.093 112.833,30.186 112.833 C 30.279 112.833,30.594 113.012,30.886 113.231 C 31.178 113.449,31.585 113.679,31.792 113.742 C 31.998 113.805,32.167 113.921,32.167 114.000 C 32.167 114.079,32.316 114.192,32.499 114.250 C 32.682 114.308,32.926 114.450,33.042 114.566 C 33.248 114.772,33.654 115.010,34.833 115.617 C 35.154 115.782,35.454 115.954,35.500 116.000 C 35.546 116.046,36.108 116.346,36.750 116.667 C 37.392 116.987,37.954 117.298,38.000 117.357 C 38.046 117.415,38.402 117.558,38.792 117.675 C 39.181 117.791,39.500 117.949,39.500 118.026 C 39.500 118.104,39.573 118.167,39.662 118.167 C 39.751 118.167,40.221 118.348,40.706 118.570 C 41.191 118.792,41.812 119.030,42.084 119.098 C 42.357 119.167,42.680 119.323,42.802 119.445 C 42.924 119.567,43.135 119.667,43.271 119.667 C 43.407 119.667,43.833 119.810,44.217 119.985 C 44.602 120.160,45.198 120.356,45.542 120.420 C 45.885 120.484,46.167 120.596,46.167 120.667 C 46.167 120.739,46.654 120.894,47.250 121.012 C 47.846 121.131,48.333 121.284,48.333 121.353 C 48.333 121.422,48.896 121.573,49.583 121.688 C 50.271 121.804,50.833 121.948,50.833 122.009 C 50.833 122.070,51.415 122.212,52.125 122.324 C 52.835 122.437,53.567 122.597,53.750 122.679 C 54.104 122.839,57.690 123.333,58.495 123.333 C 58.757 123.333,58.997 123.403,59.028 123.489 C 59.217 124.019,75.116 124.019,75.306 123.489 C 75.336 123.403,75.614 123.333,75.922 123.333 C 76.805 123.333,80.381 122.846,80.750 122.676 C 80.933 122.591,81.596 122.439,82.222 122.337 C 82.849 122.235,83.486 122.087,83.639 122.007 C 83.792 121.927,84.367 121.772,84.917 121.662 C 85.467 121.553,85.992 121.405,86.083 121.333 C 86.175 121.262,86.681 121.108,87.208 120.992 C 87.735 120.876,88.167 120.727,88.167 120.663 C 88.167 120.598,88.617 120.450,89.167 120.333 C 89.717 120.217,90.167 120.065,90.167 119.996 C 90.167 119.927,90.412 119.824,90.711 119.768 C 91.011 119.712,91.517 119.526,91.836 119.355 C 92.156 119.184,92.660 118.991,92.958 118.926 C 93.256 118.860,93.500 118.739,93.500 118.656 C 93.500 118.573,93.837 118.420,94.250 118.316 C 94.662 118.212,95.000 118.073,95.000 118.007 C 95.000 117.941,95.300 117.788,95.667 117.667 C 96.033 117.546,96.333 117.396,96.333 117.333 C 96.333 117.271,96.633 117.121,97.000 117.000 C 97.367 116.879,97.667 116.729,97.667 116.667 C 97.667 116.604,97.967 116.454,98.333 116.333 C 98.700 116.212,99.000 116.055,99.000 115.984 C 99.000 115.913,99.263 115.760,99.583 115.644 C 99.904 115.528,100.167 115.382,100.167 115.320 C 100.167 115.258,100.392 115.114,100.667 115.000 C 100.942 114.886,101.167 114.741,101.167 114.678 C 101.167 114.614,101.429 114.459,101.750 114.333 C 102.071 114.207,102.333 114.057,102.333 114.000 C 102.333 113.942,102.600 113.768,102.925 113.613 C 103.251 113.458,103.607 113.253,103.717 113.158 C 103.827 113.062,104.442 112.617,105.083 112.169 C 105.725 111.720,106.369 111.236,106.514 111.093 C 106.659 110.950,106.862 110.833,106.964 110.833 C 107.066 110.833,107.210 110.739,107.283 110.624 C 107.357 110.509,107.679 110.217,108.000 109.976 C 109.496 108.852,110.558 107.893,113.143 105.329 C 115.696 102.797,117.073 101.274,118.339 99.583 C 118.936 98.787,119.315 98.295,119.708 97.809 C 119.869 97.611,120.000 97.391,120.000 97.320 C 120.000 97.249,120.096 97.091,120.212 96.970 C 120.329 96.849,120.665 96.375,120.958 95.917 C 121.251 95.458,121.569 94.992,121.663 94.881 C 121.757 94.770,121.921 94.489,122.027 94.256 C 122.133 94.024,122.269 93.833,122.329 93.833 C 122.389 93.833,122.541 93.571,122.667 93.250 C 122.793 92.929,122.947 92.667,123.011 92.667 C 123.074 92.667,123.225 92.423,123.345 92.125 C 123.466 91.827,123.612 91.546,123.669 91.500 C 123.727 91.454,124.026 90.892,124.334 90.250 C 124.642 89.608,124.955 89.058,125.030 89.028 C 125.105 88.997,125.167 88.892,125.167 88.794 C 125.167 88.696,125.349 88.231,125.571 87.761 C 125.793 87.291,126.027 86.702,126.089 86.453 C 126.152 86.204,126.262 86.000,126.333 86.000 C 126.405 86.000,126.515 85.796,126.577 85.547 C 126.640 85.299,126.829 84.792,126.997 84.422 C 127.165 84.053,127.356 83.469,127.420 83.125 C 127.484 82.781,127.594 82.500,127.662 82.500 C 127.731 82.500,127.883 82.050,128.000 81.500 C 128.117 80.950,128.267 80.500,128.334 80.500 C 128.402 80.500,128.548 80.031,128.661 79.458 C 128.773 78.885,128.924 78.342,128.996 78.250 C 129.069 78.158,129.224 77.521,129.341 76.833 C 129.457 76.146,129.610 75.508,129.679 75.417 C 129.748 75.325,129.897 74.462,130.010 73.500 C 130.123 72.537,130.272 71.675,130.341 71.583 C 130.827 70.940,130.953 58.554,130.502 55.833 C 130.419 55.329,130.233 54.129,130.088 53.167 C 129.944 52.204,129.758 51.267,129.675 51.083 C 129.592 50.900,129.433 50.225,129.321 49.583 C 129.209 48.942,129.070 48.379,129.012 48.333 C 128.953 48.288,128.808 47.762,128.688 47.167 C 128.568 46.571,128.413 46.008,128.343 45.917 C 128.272 45.825,128.123 45.376,128.012 44.919 C 127.900 44.462,127.750 44.012,127.679 43.919 C 127.607 43.826,127.446 43.394,127.321 42.958 C 127.196 42.523,127.049 42.167,126.995 42.167 C 126.941 42.167,126.800 41.792,126.683 41.333 C 126.565 40.875,126.418 40.500,126.354 40.500 C 126.291 40.500,126.140 40.162,126.018 39.750 C 125.896 39.337,125.730 39.000,125.648 39.000 C 125.567 39.000,125.501 38.906,125.503 38.792 C 125.506 38.570,123.826 35.140,123.645 35.000 C 123.586 34.954,123.414 34.654,123.263 34.333 C 122.826 33.406,122.460 32.769,122.232 32.542 C 122.117 32.426,121.974 32.182,121.916 31.999 C 121.858 31.816,121.750 31.667,121.676 31.667 C 121.601 31.667,121.447 31.442,121.333 31.167 C 121.219 30.892,121.060 30.667,120.980 30.667 C 120.899 30.667,120.833 30.573,120.833 30.458 C 120.833 30.344,120.646 30.032,120.416 29.766 C 120.187 29.499,120.000 29.224,120.000 29.153 C 120.000 29.082,119.906 28.923,119.792 28.799 C 119.284 28.253,118.500 27.171,118.500 27.018 C 118.500 26.926,118.405 26.790,118.288 26.717 C 118.172 26.643,117.677 26.096,117.188 25.500 C 116.098 24.172,113.456 21.302,112.678 20.600 C 112.363 20.316,111.613 19.614,111.011 19.041 C 110.409 18.468,109.785 17.957,109.625 17.905 C 109.465 17.853,109.333 17.753,109.333 17.683 C 109.333 17.612,108.614 16.999,107.735 16.319 C 106.855 15.639,105.981 14.952,105.792 14.792 C 105.604 14.631,105.397 14.500,105.334 14.500 C 105.270 14.500,105.001 14.313,104.734 14.084 C 104.468 13.854,104.156 13.667,104.042 13.667 C 103.927 13.667,103.832 13.610,103.830 13.542 C 103.828 13.473,103.447 13.192,102.983 12.917 C 102.519 12.642,102.038 12.323,101.915 12.209 C 101.792 12.095,101.517 11.922,101.304 11.825 C 101.091 11.729,100.617 11.467,100.250 11.245 C 99.883 11.022,99.321 10.708,99.000 10.545 C 98.679 10.383,98.379 10.204,98.333 10.148 C 98.287 10.093,97.969 9.946,97.625 9.823 C 97.281 9.700,97.000 9.552,97.000 9.493 C 97.000 9.435,96.700 9.288,96.333 9.167 C 95.967 9.046,95.667 8.884,95.667 8.807 C 95.667 8.730,95.594 8.667,95.505 8.667 C 95.416 8.667,94.947 8.487,94.463 8.267 C 92.778 7.501,91.508 7.000,91.255 7.000 C 91.115 7.000,91.000 6.935,91.000 6.855 C 91.000 6.775,90.644 6.614,90.208 6.496 C 89.773 6.378,89.342 6.225,89.250 6.156 C 88.986 5.957,84.932 4.841,84.458 4.836 C 84.298 4.835,84.167 4.768,84.167 4.687 C 84.167 4.607,83.565 4.447,82.830 4.333 C 82.095 4.219,81.459 4.068,81.416 3.998 C 81.372 3.928,80.568 3.775,79.627 3.657 C 78.686 3.539,77.879 3.391,77.833 3.328 C 77.736 3.195,74.094 2.833,72.849 2.833 C 72.382 2.833,72.000 2.758,72.000 2.667 C 72.000 2.559,70.306 2.500,67.250 2.500 C 64.194 2.500,62.500 2.559,62.500 2.667 M72.500 9.504 C 110.544 12.844,134.370 51.147,119.206 84.589 C 103.461 119.315,56.262 128.237,27.722 101.882 C 21.916 96.521,16.561 88.705,14.158 82.083 C 13.991 81.625,13.665 80.725,13.432 80.083 C 9.039 67.958,9.896 53.001,15.679 40.917 C 22.031 27.642,35.277 16.169,48.865 12.173 C 49.443 12.003,50.574 11.669,51.377 11.432 C 57.274 9.689,65.769 8.914,72.500 9.504 M62.833 12.268 C 47.733 13.583,33.732 20.874,24.777 32.083 C 3.475 58.749,13.682 96.327,46.000 110.214 C 61.146 116.722,81.005 115.372,95.162 106.872 C 124.425 89.301,129.529 52.399,106.060 28.077 C 95.595 17.232,78.331 10.918,62.833 12.268 M86.417 25.548 C 92.444 26.993,95.669 29.490,97.183 33.883 C 100.329 43.009,93.378 55.126,82.917 58.757 C 80.812 59.487,80.815 59.507,83.099 60.098 C 94.398 63.016,97.006 73.826,89.250 85.583 C 83.770 93.890,75.465 98.557,63.750 99.914 C 61.780 100.142,59.740 100.176,50.667 100.134 L 39.917 100.083 39.175 99.667 C 37.729 98.854,37.408 97.318,38.162 94.815 C 38.366 94.138,38.818 92.646,39.167 91.500 C 39.515 90.354,39.964 88.854,40.164 88.167 C 40.364 87.479,40.665 86.467,40.833 85.917 C 41.001 85.367,41.327 84.279,41.558 83.500 C 41.970 82.111,43.400 77.357,44.685 73.106 C 45.042 71.927,45.333 70.867,45.333 70.751 C 45.333 70.272,45.918 70.194,50.833 70.017 C 53.629 69.917,57.034 69.788,58.401 69.730 C 60.785 69.631,60.879 69.639,60.748 69.938 C 56.282 80.163,67.318 95.008,76.399 90.990 C 84.766 87.290,79.811 70.228,69.417 66.946 C 67.982 66.493,67.458 66.465,64.059 66.655 C 61.341 66.808,48.213 67.324,46.875 67.331 C 46.406 67.334,46.408 67.238,46.909 65.593 C 47.693 63.021,49.555 56.829,50.245 54.500 C 50.634 53.186,51.347 50.814,52.001 48.667 C 52.349 47.521,52.797 46.021,52.997 45.333 C 53.197 44.646,53.498 43.633,53.666 43.083 C 54.101 41.660,54.756 39.460,55.187 37.976 C 55.630 36.448,55.447 36.514,59.333 36.483 C 60.754 36.472,63.229 36.413,64.833 36.352 C 67.790 36.238,68.214 36.291,67.852 36.727 C 67.475 37.182,67.000 39.239,67.001 40.416 C 67.009 48.672,76.305 56.129,80.966 51.618 C 86.234 46.520,79.980 33.842,72.250 33.949 C 70.507 33.973,60.803 34.304,58.292 34.426 C 56.893 34.493,56.333 34.466,56.333 34.332 C 56.333 33.284,58.139 28.393,58.917 27.332 C 60.646 24.978,60.549 24.993,73.583 25.056 L 84.583 25.108 86.417 25.548 M330.833 57.917 L 330.833 77.500 333.583 77.500 L 336.333 77.500 336.333 57.917 L 336.333 38.333 333.583 38.333 L 330.833 38.333 330.833 57.917 M160.121 41.102 C 159.897 41.325,159.976 77.076,160.200 77.300 C 160.459 77.559,176.424 77.591,176.583 77.333 C 176.640 77.242,177.054 77.167,177.503 77.167 C 178.555 77.167,180.833 76.829,180.833 76.673 C 180.833 76.607,181.246 76.461,181.750 76.348 C 182.254 76.235,182.667 76.078,182.667 75.999 C 182.667 75.920,182.835 75.802,183.042 75.737 C 183.248 75.672,183.649 75.442,183.932 75.226 C 184.216 75.010,184.501 74.833,184.565 74.833 C 184.909 74.833,186.797 72.615,186.942 72.042 C 186.994 71.835,187.091 71.667,187.158 71.667 C 187.307 71.667,187.667 70.512,187.667 70.036 C 187.667 69.848,187.757 69.664,187.867 69.628 C 188.137 69.538,188.164 64.985,187.896 64.650 C 187.794 64.522,187.618 64.023,187.505 63.542 C 187.392 63.060,187.241 62.667,187.168 62.667 C 187.096 62.667,186.994 62.498,186.942 62.292 C 186.817 61.797,186.448 61.323,185.304 60.189 C 184.075 58.970,184.005 58.917,183.280 58.655 C 182.943 58.533,182.667 58.378,182.667 58.312 C 182.667 58.245,182.254 58.105,181.750 58.000 C 180.782 57.799,180.587 57.598,181.208 57.442 C 181.584 57.347,182.100 57.004,182.686 56.458 C 182.859 56.298,183.066 56.167,183.147 56.167 C 183.373 56.167,184.599 54.473,185.030 53.564 C 185.462 52.655,185.628 47.961,185.238 47.702 C 185.139 47.637,184.961 47.227,184.841 46.792 C 184.721 46.356,184.563 46.000,184.490 46.000 C 184.416 46.000,184.303 45.831,184.238 45.625 C 184.129 45.278,182.141 43.167,181.923 43.167 C 181.870 43.167,181.547 42.984,181.205 42.760 C 180.863 42.537,180.377 42.303,180.125 42.242 C 179.873 42.181,179.667 42.074,179.667 42.005 C 179.667 41.936,179.198 41.782,178.625 41.664 C 178.052 41.547,177.478 41.368,177.350 41.267 C 177.083 41.057,160.325 40.897,160.121 41.102 M175.798 45.424 C 175.863 45.519,176.235 45.700,176.625 45.825 C 177.015 45.951,177.333 46.102,177.333 46.162 C 177.333 46.222,177.596 46.374,177.917 46.500 C 178.237 46.626,178.500 46.771,178.500 46.823 C 178.500 46.874,178.688 47.135,178.917 47.401 C 179.146 47.667,179.333 47.981,179.333 48.097 C 179.333 48.214,179.464 48.441,179.625 48.601 C 179.981 48.957,180.064 52.421,179.722 52.633 C 179.614 52.699,179.474 52.962,179.410 53.217 C 179.263 53.803,178.030 55.046,177.304 55.340 C 176.999 55.464,176.711 55.621,176.663 55.689 C 176.451 55.993,174.099 56.164,170.125 56.165 L 165.833 56.167 165.833 50.650 L 165.833 45.133 170.756 45.192 C 173.918 45.229,175.721 45.312,175.798 45.424 M202.091 49.857 C 201.454 49.939,200.892 50.069,200.841 50.145 C 200.791 50.222,200.356 50.378,199.875 50.492 C 199.394 50.607,199.000 50.767,199.000 50.850 C 199.000 50.932,198.900 51.000,198.779 51.000 C 198.189 51.000,195.000 53.644,195.000 54.133 C 195.000 54.233,194.865 54.412,194.700 54.532 C 194.535 54.652,194.301 54.994,194.180 55.292 C 194.059 55.590,193.902 55.833,193.832 55.833 C 193.761 55.833,193.604 56.171,193.482 56.583 C 193.360 56.996,193.209 57.333,193.147 57.333 C 193.084 57.333,192.945 57.727,192.838 58.208 C 192.731 58.690,192.554 59.264,192.446 59.484 C 192.184 60.020,192.169 67.959,192.430 68.131 C 192.529 68.197,192.708 68.719,192.828 69.292 C 192.948 69.865,193.104 70.333,193.176 70.333 C 193.248 70.333,193.356 70.559,193.417 70.835 C 193.478 71.111,193.618 71.430,193.728 71.543 C 193.839 71.657,194.061 72.031,194.222 72.375 C 194.384 72.719,194.587 73.000,194.674 73.000 C 194.762 73.000,194.833 73.096,194.833 73.212 C 194.833 73.463,197.058 75.667,197.311 75.667 C 197.406 75.667,197.543 75.760,197.617 75.875 C 197.774 76.121,199.868 77.167,200.202 77.167 C 200.329 77.167,200.505 77.236,200.592 77.321 C 201.239 77.951,208.427 77.951,209.075 77.321 C 209.162 77.236,209.344 77.167,209.478 77.167 C 209.787 77.167,211.842 76.176,212.137 75.884 C 212.258 75.765,212.420 75.667,212.497 75.667 C 212.751 75.667,214.976 73.323,215.198 72.823 C 215.317 72.554,215.465 72.333,215.527 72.333 C 215.657 72.333,216.667 70.309,216.667 70.048 C 216.667 69.951,216.775 69.662,216.908 69.405 C 217.041 69.149,217.196 68.522,217.253 68.011 C 217.309 67.501,217.429 66.931,217.519 66.746 C 217.944 65.870,217.437 59.139,216.854 57.919 C 216.766 57.734,216.460 57.071,216.174 56.445 C 215.663 55.326,215.543 55.132,214.958 54.488 C 214.798 54.311,214.667 54.104,214.667 54.027 C 214.667 53.577,211.879 51.268,211.101 51.073 C 210.862 51.013,210.667 50.900,210.667 50.822 C 210.667 50.743,210.348 50.600,209.958 50.503 C 209.569 50.405,209.125 50.255,208.972 50.170 C 208.194 49.734,204.396 49.562,202.091 49.857 M232.264 49.857 C 231.631 49.938,231.031 50.065,230.931 50.139 C 230.831 50.213,230.412 50.377,230.000 50.505 C 229.588 50.632,229.213 50.777,229.167 50.827 C 229.121 50.876,228.858 51.030,228.583 51.167 C 228.017 51.450,227.929 51.509,227.291 52.037 C 227.039 52.246,226.607 52.601,226.333 52.826 C 226.058 53.050,225.833 53.288,225.833 53.353 C 225.833 53.418,225.571 53.742,225.250 54.072 C 224.929 54.402,224.667 54.741,224.667 54.824 C 224.667 54.908,224.557 55.086,224.423 55.220 C 224.142 55.501,223.167 57.572,223.167 57.888 C 223.167 58.004,223.098 58.171,223.013 58.258 C 222.822 58.457,222.500 60.187,222.500 61.021 C 222.500 61.365,222.425 61.693,222.333 61.750 C 222.122 61.881,222.113 65.218,222.323 65.905 C 222.409 66.186,222.560 67.010,222.658 67.735 C 222.757 68.461,222.900 69.136,222.976 69.235 C 223.052 69.335,223.211 69.773,223.329 70.208 C 223.447 70.644,223.594 71.000,223.655 71.000 C 223.716 71.000,223.861 71.262,223.977 71.583 C 224.093 71.904,224.258 72.167,224.344 72.167 C 224.430 72.167,224.500 72.277,224.500 72.412 C 224.500 72.715,226.433 74.986,226.810 75.126 C 226.960 75.182,227.181 75.364,227.301 75.531 C 227.421 75.697,227.627 75.833,227.759 75.833 C 227.892 75.833,228.000 75.899,228.000 75.980 C 228.000 76.060,228.244 76.226,228.542 76.348 C 228.840 76.470,229.176 76.659,229.288 76.769 C 229.401 76.880,229.795 77.021,230.163 77.083 C 230.532 77.145,230.833 77.255,230.833 77.326 C 230.833 77.917,238.473 77.934,239.250 77.345 C 239.342 77.275,239.773 77.122,240.208 77.004 C 240.644 76.886,241.000 76.740,241.000 76.678 C 241.000 76.617,241.262 76.472,241.583 76.356 C 241.904 76.240,242.167 76.080,242.167 76.000 C 242.167 75.921,242.317 75.808,242.502 75.749 C 242.821 75.648,244.588 73.982,245.213 73.193 C 245.733 72.536,246.839 70.294,247.030 69.509 C 247.132 69.091,247.272 68.675,247.341 68.583 C 247.934 67.800,247.933 59.395,247.340 59.000 C 247.271 58.954,247.161 58.617,247.095 58.250 C 247.029 57.883,246.880 57.433,246.763 57.250 C 246.646 57.067,246.458 56.635,246.346 56.292 C 246.233 55.948,246.077 55.667,245.998 55.667 C 245.920 55.667,245.811 55.526,245.756 55.353 C 245.702 55.181,245.528 54.880,245.370 54.685 C 245.212 54.490,244.933 54.135,244.750 53.895 C 244.127 53.082,242.778 51.833,242.523 51.833 C 242.428 51.833,242.290 51.740,242.217 51.625 C 242.052 51.368,240.428 50.564,239.750 50.405 C 239.475 50.340,239.175 50.229,239.083 50.158 C 238.541 49.738,234.561 49.562,232.264 49.857 M264.771 49.850 C 264.233 49.929,263.708 50.058,263.605 50.137 C 263.501 50.217,263.060 50.378,262.625 50.496 C 262.190 50.614,261.833 50.766,261.833 50.835 C 261.833 50.903,261.618 51.049,261.355 51.158 C 261.091 51.267,260.454 51.771,259.938 52.279 L 259.000 53.202 259.000 52.528 C 259.000 52.157,258.925 51.807,258.833 51.750 C 258.742 51.693,258.667 51.276,258.667 50.823 L 258.667 50.000 256.167 50.000 L 253.667 50.000 253.667 63.750 L 253.667 77.500 256.417 77.500 L 259.167 77.500 259.167 67.449 L 259.167 57.398 259.584 56.824 C 260.368 55.746,260.746 55.333,260.948 55.333 C 261.059 55.333,261.210 55.231,261.283 55.107 C 261.357 54.982,261.717 54.785,262.083 54.669 C 262.450 54.552,262.854 54.373,262.982 54.272 C 263.710 53.691,268.333 54.336,268.333 55.018 C 268.333 55.088,268.478 55.190,268.655 55.246 C 269.042 55.369,269.725 56.493,270.204 57.798 C 270.541 58.714,270.557 59.103,270.622 68.125 L 270.689 77.500 273.428 77.500 L 276.167 77.500 276.167 68.417 C 276.167 63.421,276.227 59.333,276.300 59.333 C 276.373 59.333,276.526 58.883,276.640 58.333 C 276.753 57.783,276.900 57.333,276.966 57.333 C 277.032 57.333,277.190 57.098,277.317 56.810 C 277.709 55.924,279.378 54.502,280.028 54.501 C 280.181 54.500,280.337 54.406,280.375 54.292 C 280.464 54.025,283.953 53.995,284.131 54.259 C 284.196 54.356,284.512 54.541,284.833 54.670 C 285.584 54.971,286.608 56.063,286.853 56.823 C 286.958 57.150,287.127 57.522,287.230 57.650 C 287.361 57.814,287.442 60.810,287.500 67.650 L 287.583 77.417 290.284 77.462 C 292.835 77.506,292.994 77.490,293.162 77.176 C 293.709 76.153,293.115 56.769,292.510 55.917 C 292.445 55.825,292.301 55.431,292.189 55.042 C 292.078 54.652,291.921 54.333,291.840 54.333 C 291.759 54.333,291.643 54.103,291.581 53.822 C 291.519 53.541,291.363 53.270,291.234 53.221 C 291.105 53.171,291.000 53.045,290.999 52.941 C 290.998 52.682,289.618 51.380,289.091 51.140 C 288.858 51.033,288.667 50.884,288.667 50.807 C 288.667 50.730,288.570 50.667,288.452 50.667 C 288.334 50.667,287.952 50.521,287.604 50.344 C 286.150 49.603,280.661 49.449,280.174 50.136 C 280.124 50.206,279.765 50.367,279.375 50.492 C 278.985 50.617,278.667 50.765,278.667 50.819 C 278.667 50.874,278.457 51.011,278.201 51.125 C 277.708 51.343,275.959 52.986,275.542 53.623 C 275.204 54.140,274.899 54.096,274.692 53.500 C 274.596 53.225,274.438 53.000,274.342 53.000 C 274.246 53.000,274.167 52.899,274.167 52.777 C 274.167 52.482,272.920 51.217,272.497 51.082 C 272.315 51.025,272.167 50.911,272.167 50.829 C 272.167 50.747,271.848 50.587,271.458 50.473 C 271.069 50.359,270.709 50.208,270.659 50.137 C 270.386 49.748,266.701 49.569,264.771 49.850 M310.750 49.853 C 310.200 49.933,309.725 50.074,309.695 50.166 C 309.664 50.258,309.520 50.333,309.374 50.333 C 308.996 50.333,307.000 51.330,307.000 51.519 C 307.000 51.606,306.869 51.723,306.708 51.779 C 306.548 51.835,306.141 52.173,305.805 52.530 L 305.193 53.180 305.008 52.215 C 304.905 51.684,304.750 51.120,304.661 50.961 C 304.572 50.801,304.500 50.520,304.500 50.336 C 304.500 50.016,304.394 50.000,302.333 50.000 L 300.167 50.000 300.167 68.833 L 300.167 87.667 302.915 87.667 L 305.663 87.667 305.706 81.319 L 305.750 74.972 306.451 75.639 C 306.837 76.006,307.306 76.355,307.493 76.414 C 307.680 76.474,307.833 76.580,307.833 76.651 C 307.833 76.722,308.152 76.880,308.542 77.003 C 308.931 77.126,309.331 77.287,309.430 77.360 C 310.203 77.934,316.757 77.936,317.159 77.363 C 317.209 77.292,317.569 77.141,317.958 77.027 C 318.348 76.913,318.667 76.763,318.667 76.693 C 318.667 76.624,318.922 76.475,319.234 76.362 C 319.546 76.249,319.844 76.046,319.896 75.912 C 319.947 75.777,320.077 75.667,320.183 75.667 C 320.354 75.667,320.835 75.197,321.665 74.220 C 322.110 73.697,322.631 72.876,322.745 72.517 C 322.806 72.324,322.918 72.167,322.995 72.167 C 323.071 72.167,323.223 71.792,323.333 71.333 C 323.443 70.875,323.590 70.500,323.660 70.500 C 323.729 70.500,323.877 69.919,323.988 69.208 C 324.099 68.498,324.260 67.786,324.345 67.627 C 324.559 67.227,324.548 61.167,324.333 61.167 C 324.242 61.167,324.167 60.937,324.167 60.657 C 324.167 59.901,323.802 57.833,323.669 57.833 C 323.605 57.833,323.454 57.421,323.333 56.917 C 323.212 56.413,323.062 56.000,323.000 56.000 C 322.938 56.000,322.789 55.704,322.670 55.342 C 322.550 54.980,322.351 54.645,322.226 54.597 C 322.102 54.550,322.000 54.397,322.000 54.259 C 322.000 53.926,319.354 51.248,318.875 51.096 C 318.669 51.031,318.500 50.916,318.500 50.840 C 318.500 50.765,318.294 50.651,318.042 50.589 C 317.790 50.526,317.358 50.370,317.083 50.243 C 315.940 49.715,312.961 49.531,310.750 49.853 M352.344 49.854 C 351.662 49.933,351.062 50.055,351.011 50.126 C 350.959 50.197,350.579 50.343,350.167 50.449 C 349.754 50.556,349.055 50.855,348.613 51.113 C 348.171 51.372,347.673 51.661,347.508 51.756 C 346.001 52.616,344.387 55.115,344.227 56.834 L 344.118 58.008 346.849 57.963 L 349.580 57.917 349.691 57.136 C 349.826 56.193,350.849 55.065,352.115 54.464 C 353.732 53.696,358.500 54.108,358.500 55.015 C 358.500 55.098,358.604 55.167,358.730 55.167 C 359.009 55.167,359.736 56.089,359.913 56.667 C 359.983 56.896,360.113 57.173,360.200 57.283 C 360.288 57.393,360.402 58.342,360.454 59.391 L 360.548 61.299 355.601 61.358 C 352.451 61.395,350.611 61.479,350.536 61.589 C 350.470 61.684,349.929 61.859,349.334 61.979 C 348.738 62.099,348.213 62.254,348.167 62.324 C 348.121 62.394,347.802 62.543,347.458 62.655 C 347.115 62.767,346.833 62.920,346.833 62.995 C 346.833 63.069,346.638 63.180,346.399 63.240 C 345.753 63.402,343.747 65.497,343.498 66.270 C 343.384 66.626,343.206 67.022,343.103 67.151 C 342.857 67.459,342.846 72.298,343.091 72.464 C 343.188 72.530,343.362 72.911,343.479 73.313 C 343.731 74.175,343.801 74.272,345.023 75.485 C 346.243 76.694,346.316 76.748,347.093 76.998 C 347.454 77.115,347.825 77.269,347.917 77.341 C 348.690 77.946,354.663 77.942,355.417 77.335 C 355.508 77.261,355.902 77.106,356.292 76.991 C 356.681 76.875,357.000 76.727,357.000 76.661 C 357.000 76.594,357.225 76.447,357.500 76.333 C 357.775 76.219,358.000 76.065,358.000 75.991 C 358.000 75.917,358.143 75.811,358.317 75.755 C 358.491 75.700,359.035 75.264,359.525 74.786 L 360.417 73.917 360.562 75.208 C 360.641 75.919,360.772 76.500,360.853 76.500 C 360.934 76.500,361.000 76.725,361.000 77.000 L 361.000 77.500 363.833 77.500 C 367.088 77.500,366.837 77.681,366.388 75.667 C 366.155 74.625,366.091 72.934,365.999 65.500 C 365.939 60.596,365.831 56.396,365.759 56.167 C 365.688 55.938,365.488 55.445,365.315 55.072 C 365.142 54.700,365.000 54.306,365.000 54.197 C 365.000 54.089,364.944 53.998,364.875 53.996 C 364.806 53.993,364.563 53.689,364.335 53.319 C 363.912 52.633,362.551 51.495,361.714 51.128 C 361.459 51.015,361.211 50.870,361.163 50.804 C 361.115 50.739,360.702 50.589,360.246 50.471 C 359.790 50.352,359.378 50.203,359.330 50.138 C 359.042 49.749,354.755 49.574,352.344 49.854 M369.612 50.236 C 369.527 50.458,369.900 51.633,370.412 52.750 C 370.538 53.025,370.692 53.456,370.755 53.708 C 370.818 53.960,370.927 54.167,370.997 54.167 C 371.068 54.167,371.170 54.392,371.225 54.667 C 371.280 54.942,371.477 55.500,371.662 55.908 C 371.848 56.315,372.000 56.760,372.000 56.896 C 372.000 57.032,372.100 57.243,372.222 57.365 C 372.344 57.487,372.499 57.808,372.567 58.079 C 372.635 58.350,372.836 58.889,373.012 59.277 C 373.189 59.664,373.333 60.061,373.333 60.158 C 373.333 60.255,373.483 60.614,373.666 60.956 C 373.850 61.298,374.045 61.822,374.102 62.122 C 374.158 62.422,374.262 62.667,374.334 62.667 C 374.405 62.667,374.515 62.870,374.577 63.119 C 374.640 63.368,374.837 63.893,375.016 64.286 C 375.195 64.679,375.387 65.225,375.442 65.500 C 375.497 65.775,375.599 66.000,375.669 66.000 C 375.740 66.000,375.848 66.204,375.911 66.453 C 375.973 66.701,376.160 67.208,376.327 67.578 C 376.493 67.947,376.681 68.494,376.744 68.792 C 376.808 69.090,376.922 69.333,376.998 69.333 C 377.074 69.333,377.232 69.708,377.349 70.167 C 377.467 70.625,377.618 71.000,377.685 71.000 C 377.752 71.000,377.860 71.244,377.926 71.542 C 377.991 71.840,378.184 72.344,378.355 72.664 C 378.526 72.983,378.712 73.489,378.768 73.789 C 378.824 74.088,378.934 74.333,379.011 74.333 C 379.088 74.333,379.201 74.600,379.263 74.925 C 379.324 75.250,379.482 75.625,379.615 75.757 C 379.894 76.037,379.964 76.981,379.717 77.141 C 379.624 77.201,379.461 77.519,379.354 77.847 C 379.247 78.175,379.011 78.735,378.830 79.091 C 378.648 79.446,378.500 79.834,378.500 79.952 C 378.500 80.070,378.430 80.167,378.345 80.167 C 378.259 80.167,378.139 80.335,378.078 80.542 C 377.925 81.057,377.176 82.158,376.634 82.664 C 375.633 83.598,375.679 83.583,373.806 83.580 L 372.021 83.577 371.920 84.830 C 371.864 85.519,371.746 86.214,371.659 86.373 C 371.027 87.523,371.620 88.000,373.680 88.000 C 374.029 88.000,374.360 88.075,374.417 88.167 C 374.542 88.370,375.333 88.390,375.333 88.191 C 375.333 88.112,375.877 88.007,376.542 87.956 C 377.716 87.866,379.500 87.175,379.500 86.810 C 379.500 86.731,379.606 86.667,379.736 86.667 C 380.477 86.667,383.288 82.434,383.608 80.836 C 383.663 80.560,383.765 80.333,383.834 80.333 C 383.904 80.333,384.048 79.984,384.156 79.557 C 384.263 79.130,384.460 78.626,384.592 78.437 C 384.725 78.247,384.833 77.993,384.833 77.870 C 384.833 77.748,384.975 77.334,385.148 76.949 C 385.321 76.565,385.514 76.006,385.578 75.708 C 385.641 75.410,385.748 75.167,385.815 75.167 C 385.882 75.167,386.033 74.792,386.151 74.333 C 386.268 73.875,386.420 73.500,386.489 73.500 C 386.557 73.500,386.712 73.087,386.833 72.583 C 386.954 72.079,387.100 71.667,387.157 71.667 C 387.214 71.667,387.365 71.312,387.493 70.879 C 387.621 70.445,387.825 69.901,387.945 69.670 C 388.066 69.439,388.211 69.006,388.268 68.708 C 388.324 68.410,388.428 68.167,388.499 68.167 C 388.569 68.167,388.715 67.817,388.823 67.390 C 388.930 66.963,389.127 66.459,389.259 66.270 C 389.392 66.081,389.500 65.826,389.500 65.704 C 389.500 65.582,389.642 65.167,389.814 64.783 C 389.987 64.398,390.181 63.840,390.244 63.542 C 390.308 63.244,390.419 63.000,390.492 63.000 C 390.565 63.000,390.670 62.775,390.725 62.500 C 390.780 62.225,390.979 61.663,391.167 61.250 C 391.355 60.837,391.553 60.275,391.608 60.000 C 391.663 59.725,391.758 59.500,391.818 59.500 C 391.878 59.500,392.031 59.144,392.158 58.708 C 392.285 58.273,392.483 57.767,392.599 57.583 C 392.714 57.400,392.860 56.969,392.923 56.625 C 392.986 56.281,393.093 56.000,393.160 56.000 C 393.228 56.000,393.416 55.512,393.577 54.917 C 393.738 54.321,393.925 53.833,393.992 53.833 C 394.059 53.833,394.212 53.421,394.333 52.917 C 394.454 52.413,394.598 52.000,394.653 52.000 C 394.785 52.000,395.167 50.762,395.167 50.332 C 395.167 50.001,395.089 49.994,392.126 50.038 L 389.086 50.083 388.846 51.000 C 388.713 51.504,388.553 51.954,388.489 52.000 C 388.426 52.046,388.278 52.515,388.160 53.042 C 388.043 53.569,387.892 54.000,387.825 54.000 C 387.758 54.000,387.651 54.281,387.587 54.625 C 387.522 54.969,387.333 55.550,387.167 55.917 C 387.000 56.283,386.811 56.865,386.746 57.210 C 386.682 57.555,386.567 57.875,386.492 57.921 C 386.417 57.968,386.264 58.417,386.151 58.920 C 386.039 59.422,385.894 59.833,385.830 59.833 C 385.765 59.833,385.617 60.283,385.500 60.833 C 385.383 61.383,385.233 61.833,385.167 61.833 C 385.100 61.833,384.950 62.283,384.833 62.833 C 384.717 63.383,384.571 63.833,384.509 63.833 C 384.447 63.833,384.296 64.227,384.173 64.708 C 384.050 65.190,383.884 65.696,383.805 65.833 C 383.633 66.130,383.065 67.777,382.771 68.833 C 382.506 69.782,382.292 69.781,382.096 68.830 C 382.012 68.419,381.897 68.046,381.842 68.000 C 381.787 67.954,381.600 67.335,381.426 66.625 C 381.253 65.915,381.060 65.333,380.999 65.333 C 380.937 65.333,380.794 64.922,380.682 64.420 C 380.569 63.917,380.416 63.468,380.341 63.421 C 380.266 63.375,380.153 63.055,380.090 62.710 C 380.027 62.365,379.881 61.933,379.765 61.750 C 379.649 61.567,379.462 61.043,379.348 60.586 C 379.235 60.128,379.083 59.678,379.011 59.586 C 378.938 59.493,378.826 59.194,378.761 58.922 C 378.696 58.651,378.505 58.126,378.336 57.756 C 378.168 57.386,377.978 56.802,377.913 56.458 C 377.849 56.115,377.736 55.833,377.663 55.833 C 377.589 55.833,377.481 55.545,377.421 55.193 C 377.362 54.841,377.214 54.363,377.094 54.131 C 376.973 53.899,376.776 53.324,376.656 52.854 C 376.536 52.384,376.385 52.000,376.320 52.000 C 376.256 52.000,376.153 51.731,376.092 51.402 C 376.030 51.073,375.897 50.623,375.796 50.402 L 375.613 50.000 372.658 50.000 C 370.263 50.000,369.685 50.045,369.612 50.236 M207.132 54.267 C 207.197 54.367,207.442 54.496,207.678 54.553 C 207.913 54.611,208.269 54.791,208.470 54.954 C 208.670 55.117,209.059 55.434,209.334 55.659 C 209.609 55.884,209.833 56.167,209.833 56.289 C 209.833 56.411,209.939 56.551,210.068 56.601 C 210.197 56.650,210.400 56.929,210.519 57.220 C 210.638 57.512,210.833 57.849,210.951 57.970 C 211.070 58.091,211.167 58.316,211.168 58.470 C 211.168 58.624,211.283 58.969,211.422 59.236 C 212.133 60.599,212.181 68.167,211.480 68.167 C 211.399 68.167,211.333 68.292,211.333 68.445 C 211.333 69.458,208.855 72.833,208.112 72.833 C 207.972 72.833,207.743 72.947,207.604 73.086 C 207.018 73.672,202.333 73.760,202.333 73.185 C 202.333 73.120,202.062 72.969,201.730 72.849 C 201.220 72.664,200.024 71.605,199.417 70.801 C 199.084 70.360,198.363 68.736,198.247 68.167 C 198.182 67.846,198.043 67.478,197.939 67.349 C 197.686 67.036,197.674 60.372,197.927 60.202 C 198.024 60.137,198.198 59.652,198.314 59.125 C 198.429 58.598,198.588 58.167,198.666 58.167 C 198.744 58.167,198.899 57.885,199.011 57.542 C 199.122 57.198,199.316 56.857,199.440 56.783 C 199.565 56.710,199.667 56.569,199.667 56.470 C 199.667 56.314,200.224 55.747,201.061 55.050 C 201.276 54.871,202.341 54.351,203.000 54.103 C 203.448 53.934,207.007 54.076,207.132 54.267 M237.470 54.269 C 237.532 54.361,237.844 54.541,238.163 54.670 C 239.022 55.018,240.747 56.853,240.942 57.625 C 240.994 57.831,241.096 58.000,241.168 58.000 C 241.241 58.000,241.393 58.394,241.508 58.875 C 241.622 59.356,241.780 59.792,241.859 59.844 C 242.391 60.192,242.363 67.623,241.829 67.806 C 241.740 67.836,241.667 68.011,241.667 68.195 C 241.667 68.543,240.739 70.548,240.372 70.994 C 240.104 71.319,239.161 72.287,238.833 72.573 C 238.696 72.693,238.396 72.848,238.167 72.918 C 237.938 72.988,237.710 73.107,237.661 73.182 C 237.292 73.752,232.816 73.673,232.228 73.086 C 232.090 72.947,231.886 72.833,231.775 72.833 C 231.665 72.833,231.450 72.702,231.299 72.542 C 231.147 72.381,230.793 72.066,230.511 71.841 C 230.230 71.616,230.000 71.339,230.000 71.224 C 230.000 71.110,229.906 70.957,229.792 70.883 C 229.546 70.726,228.500 68.632,228.500 68.298 C 228.500 68.171,228.427 67.994,228.338 67.905 C 227.803 67.369,227.772 60.477,228.302 59.770 C 228.379 59.667,228.530 59.273,228.638 58.894 C 229.122 57.202,231.046 54.829,232.129 54.592 C 232.425 54.527,232.667 54.410,232.667 54.332 C 232.667 53.992,237.242 53.932,237.470 54.269 M313.725 54.298 C 313.830 54.379,314.179 54.548,314.500 54.674 C 315.136 54.925,315.134 54.923,316.042 55.696 C 316.385 55.989,316.667 56.319,316.667 56.430 C 316.667 56.540,316.779 56.674,316.917 56.727 C 317.054 56.780,317.167 56.929,317.167 57.058 C 317.167 57.187,317.267 57.376,317.390 57.478 C 317.512 57.579,317.708 57.982,317.825 58.373 C 317.941 58.764,318.096 59.121,318.168 59.167 C 319.115 59.768,319.050 68.474,318.092 69.432 C 317.965 69.559,317.811 69.889,317.750 70.165 C 317.690 70.441,317.569 70.667,317.482 70.667 C 317.394 70.667,317.275 70.798,317.215 70.958 C 317.121 71.214,316.567 71.786,315.763 72.459 C 315.625 72.574,315.303 72.760,315.048 72.872 C 314.792 72.985,314.542 73.134,314.491 73.204 C 313.884 74.039,309.044 73.522,307.768 72.486 C 306.788 71.689,306.333 71.238,306.333 71.061 C 306.333 70.945,306.202 70.776,306.042 70.687 C 305.773 70.537,305.746 70.015,305.703 64.080 L 305.655 57.636 306.135 56.912 C 306.399 56.513,306.822 56.014,307.075 55.802 C 307.328 55.590,307.673 55.290,307.841 55.135 C 308.010 54.979,308.471 54.758,308.865 54.643 C 309.260 54.527,309.621 54.380,309.667 54.315 C 309.890 54.001,313.315 53.988,313.725 54.298 M176.907 60.664 C 180.982 61.331,183.117 64.770,182.148 69.103 C 181.893 70.241,180.305 72.037,179.370 72.242 C 179.075 72.307,178.833 72.419,178.833 72.490 C 178.833 72.849,176.628 73.000,171.389 73.000 L 165.833 73.000 165.833 66.750 L 165.833 60.500 170.875 60.501 C 173.648 60.501,176.362 60.575,176.907 60.664 M360.471 67.046 C 360.411 69.482,360.481 69.299,359.067 70.726 C 357.822 71.981,356.631 72.700,355.417 72.928 C 355.094 72.988,354.789 73.104,354.738 73.186 C 354.617 73.382,351.213 73.377,351.091 73.179 C 351.039 73.095,350.772 72.977,350.499 72.916 C 350.055 72.819,349.397 72.272,348.667 71.392 C 348.289 70.938,348.319 68.657,348.708 68.268 C 348.869 68.107,349.000 67.897,349.000 67.799 C 349.000 67.248,351.157 65.624,352.167 65.415 C 352.488 65.349,352.828 65.233,352.922 65.157 C 353.143 64.980,354.411 64.904,357.805 64.865 L 360.526 64.833 360.471 67.046 " stroke="none" fill="#040404" fill-rule="evenodd"></path></g></svg>