<?xml version="1.0" encoding="utf-8"?>
<!-- Generator: Adobe Illustrator 16.0.0, SVG Export Plug-In . SVG Version: 6.00 Build 0)  -->
<!DOCTYPE svg PUBLIC "-//W3C//DTD SVG 1.1//EN" "http://www.w3.org/Graphics/SVG/1.1/DTD/svg11.dtd">
<svg version="1.1" xmlns="http://www.w3.org/2000/svg" xmlns:xlink="http://www.w3.org/1999/xlink" x="0px" y="0px" width="125px"
	 height="40px" viewBox="0 0 125 40" enable-background="new 0 0 125 40" xml:space="preserve">
<g id="Layer_1">
</g>
<g id="Layer_2">
	<g>
		<g>
			<path fill-rule="evenodd" clip-rule="evenodd" fill="#97B519" d="M69.4,24.1c0.1,0,0.1-0.1,0.1-0.1c0.6-2,1.2-3.9,1.7-5.9
				c0.3-1.1,0.6-2.1,0.9-3.2c0.1-0.2,0.1-0.2,0.3-0.2c0.2,0,0.4,0,0.6,0c0.1,0,0.2,0.1,0.2,0.2c0.4,1.3,0.8,2.5,1.1,3.8
				c0.3,0.9,0.5,1.7,0.8,2.6c0.3,0.9,0.5,1.8,0.8,2.7c0,0.1,0,0.2,0.1,0.2c0.1,0,0.1-0.1,0.1-0.2c0.5-1.5,0.9-2.9,1.3-4.4
				c0.3-1.1,0.7-2.2,1-3.3c0.1-0.4,0.3-0.9,0.4-1.3c0-0.1,0.1-0.2,0.2-0.2c0.2,0,0.4,0,0.5,0c0.2,0,0.2,0,0.1,0.2
				c-0.2,0.7-0.5,1.5-0.7,2.2c-0.5,1.5-1,3-1.4,4.5c-0.4,1.1-0.7,2.2-1.1,3.3c0,0.1-0.1,0.2-0.2,0.2c-0.2,0-0.4,0-0.5,0
				c-0.2,0-0.3-0.1-0.3-0.2c-0.2-0.7-0.4-1.5-0.7-2.2c-0.5-1.8-1.1-3.5-1.6-5.3c-0.1-0.4-0.3-0.9-0.4-1.3c0-0.1-0.1-0.2-0.1-0.3
				c-0.1,0-0.1,0.1-0.1,0.2c-0.6,2.1-1.2,4.1-1.9,6.2C70.5,23.1,70.2,24,70,25c0,0.1-0.1,0.2-0.2,0.2c-0.2,0-0.4,0-0.6,0
				c-0.1,0-0.2,0-0.3-0.2c-0.3-1-0.7-2.1-1-3.1c-0.4-1.1-0.7-2.2-1.1-3.3c-0.4-1.2-0.8-2.4-1.1-3.6c-0.1-0.2,0-0.2,0.2-0.2
				c0.1,0,0.3,0,0.4,0c0.2,0,0.2,0,0.3,0.2c0.3,0.9,0.5,1.8,0.8,2.7c0.3,1,0.6,2.1,1,3.1c0.3,1.1,0.7,2.1,1,3.2
				C69.3,24,69.3,24,69.4,24.1z"/>
			<path fill-rule="evenodd" clip-rule="evenodd" fill="#97B519" d="M124.2,16.9c0-0.2,0-0.4,0-0.6c0-1.8,0-3.5,0-5.3
				c0-0.3,0-0.3,0.3-0.3c0.1,0,0.2,0,0.4,0c0.1,0,0.2,0,0.2,0.2c0,0.1,0,0.1,0,0.2c0,4.6,0,9.2,0,13.8c0,0,0,0.1,0,0.1
				c0,0.1,0,0.2-0.2,0.2c-0.1,0-0.3,0-0.4,0c-0.2,0-0.2-0.1-0.2-0.2c0-0.6,0-1.1,0-1.7c0-0.1,0-0.1,0-0.2c-0.2,0.3-0.4,0.5-0.6,0.8
				c-0.7,0.9-1.6,1.4-2.7,1.5c-0.7,0.1-1.4,0-2.1-0.2c-1.1-0.3-1.8-1-2.3-2c-0.5-0.9-0.7-2-0.7-3c0-1,0.1-1.9,0.4-2.9
				c0.4-1.1,1.1-2,2.2-2.5c0.4-0.2,0.9-0.3,1.3-0.3c1.2-0.1,2.4,0.1,3.3,0.8c0.5,0.4,0.8,0.9,1.1,1.4
				C124.1,16.8,124.1,16.9,124.2,16.9C124.2,16.9,124.2,16.9,124.2,16.9z M120.5,24.7c0.6,0,1.2-0.1,1.8-0.5
				c0.7-0.4,1.1-1.1,1.5-1.8c0.4-0.9,0.6-1.9,0.5-2.9c-0.1-0.9-0.3-1.7-0.7-2.5c-0.4-0.7-0.9-1.2-1.6-1.4c-0.6-0.3-1.3-0.3-1.9-0.2
				c-0.6,0.1-1.2,0.3-1.7,0.6c-0.7,0.5-1.1,1.3-1.4,2.2c-0.2,0.8-0.3,1.6-0.2,2.5c0.1,0.9,0.3,1.7,0.8,2.4c0.3,0.5,0.6,0.9,1.1,1.2
				C119,24.5,119.7,24.7,120.5,24.7z"/>
			<path fill-rule="evenodd" clip-rule="evenodd" fill="#97B519" d="M52.5,23.1c-0.1,0-0.1,0.1-0.1,0.1c-0.4,0.7-1,1.3-1.7,1.7
				c-0.5,0.3-1.1,0.4-1.7,0.5c-0.7,0-1.3,0-2-0.2c-1-0.3-1.7-1-2.2-1.9c-0.7-1.2-0.8-2.5-0.8-3.9c0.1-1,0.3-2,0.8-2.9
				c0.7-1.2,1.7-1.8,3-2c0.8-0.1,1.7-0.1,2.5,0.2c1,0.4,1.7,1,2.1,2.1c0,0,0,0,0.1,0c0-0.1,0-0.2,0-0.2c0-1.9,0-3.8,0-5.7
				c0-0.3,0-0.3,0.3-0.3c0.6,0,0.5-0.1,0.5,0.5c0,4.5,0,9.1,0,13.6c0,0.3,0,0.3-0.3,0.3c0,0,0,0,0,0c-0.5,0-0.5,0.1-0.5-0.5
				c0-0.5,0-1,0-1.5C52.5,23.2,52.6,23.1,52.5,23.1z M44.9,19.8c0,1.2,0.2,2.2,0.8,3.1c0.4,0.7,1,1.3,1.9,1.6c0.9,0.3,1.8,0.3,2.6,0
				c0.4-0.2,0.8-0.4,1.1-0.7c0.6-0.6,0.9-1.4,1.1-2.2c0.4-1.6,0.2-3.1-0.6-4.5c-0.4-0.7-0.9-1.2-1.6-1.5c-0.7-0.3-1.5-0.3-2.2-0.2
				c-1.1,0.2-1.9,0.8-2.4,1.8C45.1,18,44.9,18.9,44.9,19.8z"/>
			<path fill-rule="evenodd" clip-rule="evenodd" fill="#97B519" d="M112.9,23.2c-0.2,0.4-0.4,0.7-0.7,1c-0.8,0.8-1.8,1.2-2.9,1.2
				c-0.7,0-1.4,0-2.1-0.3c-0.5-0.2-0.9-0.4-1.2-0.9c-0.2-0.3-0.3-0.6-0.4-1c-0.1-0.5-0.1-1,0-1.4c0.1-0.9,0.7-1.5,1.4-1.9
				c0.7-0.4,1.5-0.5,2.3-0.6c0.8,0,1.7-0.1,2.5-0.3c0.4-0.1,0.7-0.2,0.9-0.6c0.1-0.2,0.1-0.5,0.2-0.7c0-0.1,0-0.3,0-0.4
				c0-0.7-0.4-1.3-0.9-1.7c-0.5-0.3-1-0.5-1.6-0.5c-0.6,0-1.1,0-1.6,0.2c-0.5,0.2-0.9,0.4-1.3,0.9c-0.3,0.5-0.5,1-0.6,1.5
				c0,0.1-0.1,0.2-0.2,0.2c-0.2,0-0.3,0-0.5,0c-0.1,0-0.2,0-0.1-0.1c0.1-0.9,0.3-1.8,1.1-2.4c0.4-0.4,1-0.6,1.5-0.7
				c0.9-0.2,1.8-0.2,2.7,0c0.6,0.1,1.1,0.3,1.6,0.7c0.6,0.5,0.7,1.1,0.7,1.8c0,2.1,0,4.1,0,6.2c0,0.2,0,0.4,0.1,0.7
				c0.1,0.3,0.3,0.4,0.6,0.4c0.1,0,0.3,0,0.4,0c0.1,0,0.2,0,0.2,0.1c0,0.2,0,0.3,0,0.5c0,0.1,0,0.1-0.1,0.1c-0.4,0.1-0.9,0.1-1.3,0
				c-0.5-0.2-0.7-0.6-0.7-1.1C112.9,23.7,112.9,23.4,112.9,23.2C112.9,23.2,112.9,23.2,112.9,23.2z M112.9,20.3c0-0.3,0-0.6,0-0.9
				c0,0,0-0.1,0-0.1c0,0-0.1,0-0.1,0c-0.2,0.2-0.5,0.3-0.8,0.3c-0.9,0.2-1.8,0.2-2.7,0.3c-0.5,0-1,0.1-1.5,0.3
				c-0.5,0.2-0.8,0.4-1.1,0.8c-0.7,1.1-0.5,2.7,1.1,3.3c0.7,0.3,1.5,0.3,2.2,0.1c1.4-0.2,2.5-1.3,2.8-2.7
				C112.9,21.4,112.9,20.8,112.9,20.3z"/>
			<path fill-rule="evenodd" clip-rule="evenodd" fill="#97B519" d="M55.4,19.9c0-0.8,0.1-1.6,0.4-2.4c0.8-1.8,2.1-2.9,4.2-3
				c0.6,0,1.1,0.1,1.7,0.2c1.1,0.3,1.8,1,2.4,1.9c0.5,0.8,0.7,1.6,0.8,2.5c0.1,1.2,0,2.5-0.5,3.6c-0.7,1.5-1.9,2.4-3.6,2.6
				c-0.8,0.1-1.6,0-2.4-0.3c-1.2-0.5-2-1.4-2.5-2.5C55.5,21.7,55.4,20.9,55.4,19.9z M60.1,24.7c1.7,0,2.8-0.9,3.5-2.3
				c0.4-0.9,0.6-1.8,0.5-2.8c0-0.8-0.2-1.6-0.6-2.3c-0.4-0.7-0.9-1.3-1.6-1.7c-0.8-0.4-1.6-0.5-2.4-0.3c-0.8,0.1-1.6,0.5-2.1,1.2
				c-0.7,0.9-1.1,1.8-1.2,2.9c-0.1,1.2,0.1,2.3,0.7,3.4C57.6,24,58.7,24.7,60.1,24.7z"/>
			<path fill-rule="evenodd" clip-rule="evenodd" fill="#97B519" d="M94.6,19.8c0-0.7,0.1-1.5,0.4-2.3c0.7-1.8,2-2.9,4.2-3
				c0.6,0,1.1,0,1.7,0.2c1.1,0.3,1.9,1,2.4,1.9c0.5,0.8,0.7,1.6,0.8,2.5c0.1,1.2,0,2.5-0.5,3.6c-0.7,1.5-1.9,2.4-3.6,2.6
				c-0.7,0.1-1.3,0-2-0.1c-1-0.3-1.8-0.8-2.4-1.7C94.9,22.5,94.6,21.2,94.6,19.8z M99.4,24.7c1.7,0,2.8-0.8,3.4-2.3
				c0.3-0.7,0.5-1.4,0.5-2.1c0-0.9-0.1-1.8-0.4-2.6c-0.6-1.4-1.5-2.3-3.1-2.4c-1.3-0.1-2.5,0.2-3.3,1.3c-0.4,0.5-0.7,1-0.9,1.6
				c-0.2,0.8-0.3,1.5-0.2,2.3c0.1,1.1,0.5,2.1,1.3,3C97.4,24.3,98.4,24.7,99.4,24.7z"/>
			<path fill-rule="evenodd" clip-rule="evenodd" fill="#97B519" d="M81.9,16.9c0.1-0.2,0.2-0.5,0.4-0.7c0.6-0.9,1.6-1.5,2.7-1.6
				c0.8-0.1,1.5-0.1,2.3,0.2c0.8,0.3,1.4,0.8,1.8,1.6c0.2,0.6,0.3,1.1,0.3,1.7c0,2.3,0,4.5,0,6.8c0,0.1,0,0.2-0.2,0.2
				c-0.2,0-0.3,0-0.5,0c-0.1,0-0.2-0.1-0.2-0.2c0-0.1,0-0.1,0-0.2c0-2.3,0-4.5,0-6.8c0-0.7-0.2-1.3-0.6-1.9
				c-0.2-0.3-0.6-0.5-0.9-0.6c-1.2-0.4-2.4-0.3-3.5,0.5c-0.8,0.6-1.2,1.4-1.4,2.4c-0.1,0.4-0.1,0.8-0.1,1.3c0,1.7,0,3.5,0,5.2
				c0,0.1,0,0.1,0,0.2c0,0.1,0,0.1-0.1,0.1c-0.2,0-0.3,0-0.5,0c-0.1,0-0.2-0.1-0.2-0.2c0,0,0-0.1,0-0.1c0-3.3,0-6.5,0-9.8
				c0-0.1,0-0.1,0-0.2c0-0.1,0.1-0.2,0.2-0.2c0.1,0,0.3,0,0.4,0c0.2,0,0.2,0.1,0.2,0.2c0,0.6,0,1.1,0,1.7
				C81.9,16.8,81.9,16.8,81.9,16.9z"/>
			<path fill-rule="evenodd" clip-rule="evenodd" fill="#97B519" d="M92.6,17.9c0,2.3,0,4.7,0,7c0,0.2,0,0.2-0.2,0.2
				c-0.2,0-0.3,0-0.5,0c-0.1,0-0.2,0-0.2-0.2c0,0,0-0.1,0-0.1c0-4.6,0-9.2,0-13.8c0-0.1,0-0.1,0-0.2c0-0.1,0-0.2,0.2-0.2
				c0.2,0,0.3,0,0.5,0c0.1,0,0.2,0.1,0.2,0.2c0,0.1,0,0.1,0,0.2C92.6,13.3,92.6,15.6,92.6,17.9z"/>
		</g>
		<g>
			<path fill-rule="evenodd" clip-rule="evenodd" fill="#97B519" d="M36.6,25.4c-1.2,0-2.4-0.3-3.5-0.9c-1.2-0.7-1.9-1.7-2.2-3.1
				c-0.2-1-0.3-2,0-3c0.3-0.9,0.7-1.7,1.4-2.4c0.7-0.7,1.7-1.2,2.7-1.4c1.3-0.3,2.6-0.2,3.9,0.2c1.1,0.4,1.9,1,2.6,1.9
				c0.6,0.7,0.9,1.6,0.9,2.5c0.1,1,0,1.9-0.4,2.8c-0.4,1.1-1.2,1.9-2.2,2.5C38.9,25.2,37.8,25.4,36.6,25.4z M39.4,19.8
				c0-0.2,0-0.5-0.1-0.9c-0.1-0.6-0.4-1.1-0.9-1.5c-0.5-0.5-1.2-0.6-1.9-0.6c-1.1,0-2.1,0.8-2.4,1.8c-0.2,0.7-0.2,1.4-0.2,2
				c0.1,0.7,0.4,1.3,0.9,1.8c0.6,0.5,1.2,0.7,2,0.7c1,0,1.9-0.7,2.3-1.5C39.3,21.1,39.4,20.5,39.4,19.8z"/>
			<path fill-rule="evenodd" clip-rule="evenodd" fill="#97B519" d="M14.4,23.7c-0.1,0.2-0.3,0.3-0.4,0.5c-0.8,0.8-1.9,1.2-3,1.2
				c-0.7,0-1.3,0-1.9-0.3c-1.2-0.4-1.8-1.3-2-2.5C7,22,6.9,21.4,6.9,20.8c0-1.9,0-3.8,0-5.7c0-0.3,0-0.3,0.3-0.3c0.8,0,1.6,0,2.5,0
				c0.3,0,0.3,0,0.3,0.3c0,1.8,0,3.6,0,5.3c0,0.5,0,1,0.1,1.5c0.1,0.7,0.6,1.2,1.3,1.3c0.7,0.1,1.3,0,1.9-0.4
				c0.5-0.4,0.8-0.8,0.8-1.4c0.1-0.9,0.1-1.7,0.1-2.6c0-1.2,0-2.5,0-3.7c0-0.2,0-0.2,0.2-0.2c0.8,0,1.7,0,2.5,0c0.2,0,0.3,0,0.3,0.2
				c0,3.3,0,6.6,0,9.8c0,0.2,0,0.2-0.2,0.2c-0.8,0-1.6,0-2.4,0c-0.1,0-0.2-0.1-0.2-0.2C14.5,24.6,14.5,24.2,14.4,23.7
				C14.4,23.7,14.4,23.7,14.4,23.7z"/>
			<path fill-rule="evenodd" clip-rule="evenodd" fill="#97B519" d="M22.1,16.2c0.2-0.2,0.4-0.4,0.6-0.6c0.8-0.7,1.7-1,2.7-1
				c0.7,0,1.4,0,2.1,0.3c0.4,0.2,0.7,0.3,1,0.6c0.5,0.5,0.8,1.1,0.9,1.9c0.1,0.5,0.1,1,0.1,1.5c0,2,0,4,0,6c0,0.3,0,0.3-0.3,0.3
				c-0.8,0-1.7,0-2.5,0c-0.3,0-0.3,0-0.3-0.3c0-1.4,0-2.8,0-4.3c0-0.6,0-1.2,0-1.8c0-0.4,0-0.9-0.3-1.3c-0.3-0.5-0.7-0.7-1.2-0.8
				c-0.6-0.1-1.1,0-1.7,0.3c-0.6,0.4-0.9,0.9-1,1.6c-0.1,0.6-0.1,1.1-0.1,1.7c0,1.5,0,3.1,0,4.6c0,0.3,0,0.3-0.3,0.3
				c-0.9,0-1.7,0-2.6,0c-0.1,0-0.2,0-0.2-0.2c0-3.3,0-6.6,0-9.9c0-0.2,0.1-0.2,0.2-0.2c0.8,0,1.6,0,2.4,0c0.2,0,0.2,0,0.2,0.2
				c0,0.3,0,0.7,0,1C22.1,16.1,22,16.2,22.1,16.2z"/>
			<path fill-rule="evenodd" clip-rule="evenodd" fill="#97B519" d="M2,20.3c0-1.7,0-3.5,0-5.2c0-0.3,0-0.3,0.3-0.3
				c0.8,0,1.7,0,2.5,0c0.2,0,0.2,0,0.2,0.2c0,3.4,0,6.9,0,10.3c0,0.7,0,1.5-0.3,2.2C4.5,28.3,4,28.7,3.3,29c-0.5,0.2-1,0.3-1.6,0.3
				c-0.5,0-1,0-1.5,0c-0.1,0-0.2,0-0.2-0.2c0-0.7,0-1.5,0-2.2c0-0.2,0-0.2,0.2-0.2c0.2,0,0.4,0,0.6,0c0.6,0,1.2-0.3,1.2-1.1
				c0-0.3,0-0.5,0-0.8C2,23.4,2,21.8,2,20.3z"/>
			<path fill-rule="evenodd" clip-rule="evenodd" fill="#97B519" d="M3.5,13.5c-0.4,0-0.9,0-1.3,0c-0.1,0-0.2,0-0.2-0.2
				c0-0.7,0-1.5,0-2.2c0-0.2,0.1-0.2,0.2-0.2c0.9,0,1.7,0,2.6,0c0.2,0,0.2,0,0.2,0.2c0,0.7,0,1.4,0,2.1c0,0.2,0,0.2-0.2,0.2
				C4.3,13.5,3.9,13.5,3.5,13.5z"/>
		</g>
	</g>
</g>
<g id="Layer_3">
</g>
<g id="Layer_4">
</g>
</svg>
