<?xml version="1.0" encoding="utf-8"?>
<!-- Generator: Adobe Illustrator 20.1.0, SVG Export Plug-In . SVG Version: 6.00 Build 0)  -->
<svg version="1.1" id="logos" xmlns="http://www.w3.org/2000/svg" xmlns:xlink="http://www.w3.org/1999/xlink" x="0px" y="0px"
	 viewBox="0 0 125 40" enable-background="new 0 0 125 40" xml:space="preserve">
<g>
	<g>
		<g>
			<path fill="#323232" d="M45.211,14.141h-2.704c-0.02,0-0.061,0.02-0.061,0.061v0.983l-0.287-0.184
				c-0.881-0.574-1.905-0.86-2.97-0.86h-0.676c-3.052,0-5.531,2.479-5.531,5.531v0.901c0,3.052,2.479,5.531,5.531,5.531h0.676
				c1.147,0,2.274-0.369,3.196-1.024l0.164-0.123l0.102,0.184c0.328,0.594,0.963,0.963,1.639,0.963h0.942V14.182
				C45.272,14.162,45.252,14.141,45.211,14.141L45.211,14.141z M41.953,20.328c0,1.598-1.311,2.909-2.909,2.909h-0.328
				c-1.598,0-2.909-1.311-2.909-2.909v-0.43c0-1.598,1.311-2.909,2.909-2.909h0.328c1.598,0,2.909,1.311,2.909,2.909V20.328z"/>
			<path fill="#323232" d="M98.574,14.141h-2.561c-0.061,0-0.123,0.061-0.123,0.123v0.922l-0.287-0.184
				c-0.881-0.574-1.905-0.86-2.97-0.86h-0.676c-3.052,0-5.531,2.479-5.531,5.531v0.901c0,3.052,2.479,5.531,5.531,5.531h0.676
				c1.147,0,2.274-0.369,3.196-1.024l0.164-0.123l0.102,0.184c0.328,0.594,0.963,0.963,1.639,0.963h0.942v-11.84
				C98.697,14.182,98.636,14.141,98.574,14.141z M95.379,20.328c0,1.598-1.311,2.909-2.909,2.909h-0.328
				c-1.598,0-2.909-1.311-2.909-2.909v-0.43c0-1.598,1.311-2.909,2.909-2.909h0.328c1.598,0,2.909,1.311,2.909,2.909V20.328z"/>
			<path fill="#323232" d="M123.156,14.141h-0.963v11.82c0,0.082,0.061,0.143,0.143,0.143h2.499c0.082,0,0.143-0.061,0.143-0.143
				v-9.997C125,14.961,124.181,14.141,123.156,14.141z"/>
			<path fill="#323232" d="M124.078,9.43h-0.963c-0.512,0-0.922,0.41-0.922,0.922v0.963c0,0.512,0.41,0.922,0.922,0.922h0.963
				c0.512,0,0.922-0.41,0.922-0.922v-0.963C125,9.839,124.59,9.43,124.078,9.43z"/>
			<path fill="#323232" d="M52.892,14.141h-0.676c-1.004,0-1.987,0.266-2.847,0.799l-0.143,0.082l-0.102-0.143
				c-0.348-0.471-0.901-0.758-1.475-0.758h-0.963v11.943c0,0.02,0.02,0.041,0.041,0.041h2.725c0.02,0,0.041-0.02,0.041-0.041v-6.166
				c0-1.598,1.311-2.909,2.909-2.909h0.328c1.598,0,2.909,1.311,2.909,2.909v6.125c0,0.041,0.041,0.082,0.082,0.082h2.643
				c0.041,0,0.082-0.041,0.082-0.082v-6.35C58.423,16.62,55.945,14.141,52.892,14.141L52.892,14.141z"/>
			<path fill="#323232" d="M115.27,14.141h-0.676c-1.516,0-2.97,0.615-3.995,1.721l-0.123,0.143l-0.123-0.143
				c-1.045-1.106-2.479-1.721-3.995-1.721h-0.717c-1.004,0-1.987,0.266-2.847,0.799l-0.143,0.082l-0.102-0.143
				c-0.348-0.471-0.901-0.758-1.475-0.758h-0.963v11.84c0,0.082,0.061,0.143,0.143,0.143h2.499c0.082,0,0.143-0.061,0.143-0.143
				v-6.064c0-1.598,1.311-2.909,2.909-2.909h0.328c1.598,0,2.909,1.311,2.909,2.909v6.084c0,0.061,0.061,0.123,0.123,0.123h2.561
				c0.061,0,0.123-0.061,0.123-0.123v-6.084c0-1.598,1.311-2.909,2.909-2.909h0.328c1.598,0,2.909,1.311,2.909,2.909v6.064
				c0,0.082,0.061,0.143,0.143,0.143h2.52c0.082,0,0.143-0.061,0.143-0.143v-6.289C120.801,16.62,118.322,14.141,115.27,14.141z"/>
			<path fill="#323232" d="M79.503,14.141h-0.676c-0.86,0-1.7,0.205-2.458,0.594l-0.266,0.123v-3.646c0-0.922-0.758-1.68-1.68-1.68
				h-1.147v16.531c0,0.041,0.02,0.061,0.061,0.061h2.684c0.041,0,0.061-0.02,0.061-0.061v-6.146c0-1.598,1.311-2.909,2.909-2.909
				h0.328c1.598,0,2.909,1.311,2.909,2.909v6.105c0,0.061,0.041,0.102,0.102,0.102h2.602c0.061,0,0.102-0.041,0.102-0.102v-6.35
				C85.034,16.62,82.555,14.141,79.503,14.141L79.503,14.141z"/>
			<path fill="#323232" d="M70.817,13.957c-0.492-0.492-1.27-0.492-1.741,0l-0.696,0.696l-0.123-0.041
				c-0.696-0.307-1.454-0.471-2.233-0.471h-0.676c-3.052,0-5.531,2.479-5.531,5.531v0.901c0,3.052,2.479,5.531,5.531,5.531h0.676
				c0.656,0,1.311-0.123,1.926-0.348l0.102-0.041l0.082,0.082c0.512,0.492,0.799,1.188,0.799,1.905c0,1.782-1.25,2.95-3.175,2.95
				c-1.762,0-3.114-1.127-3.257-2.704v-0.123c0-0.02,0-0.02-0.041-0.02h-2.704c-0.02,0-0.041,0.02-0.041,0.02
				c0.061,3.339,2.54,5.695,6.043,5.695c3.564,0,5.961-2.335,5.961-5.818c0-0.963-0.143-2.356-1.332-3.482l-0.123-0.123l0.102-0.123
				c0.758-0.963,1.188-2.171,1.188-3.401v-0.901c0-1.106-0.328-2.171-0.942-3.073l-0.082-0.123l1.332-1.332
				c0.041-0.041,0.041-0.102,0-0.123L70.817,13.957z M68.748,20.328c0,1.598-1.311,2.909-2.909,2.909h-0.328
				c-1.598,0-2.909-1.311-2.909-2.909v-0.43c0-1.598,1.311-2.909,2.909-2.909h0.328c1.598,0,2.909,1.311,2.909,2.909V20.328z"/>
		</g>
		
			<linearGradient id="SVGID_1_" gradientUnits="userSpaceOnUse" x1="13.725" y1="47.635" x2="13.725" y2="20.185" gradientTransform="matrix(1 0 0 1 0 -13.91)">
			<stop  offset="0" style="stop-color:#E13F8C"/>
			<stop  offset="0.5035" style="stop-color:#9D2AD5"/>
			<stop  offset="1" style="stop-color:#27AAE1"/>
		</linearGradient>
		<path fill="url(#SVGID_1_)" d="M13.725,6.275C6.146,6.275,0,12.421,0,20s6.146,13.725,13.725,13.725S27.45,27.579,27.45,20
			C27.43,12.421,21.304,6.275,13.725,6.275z M25.34,19.98c0,6.412-5.203,11.615-11.615,11.615S2.11,26.391,2.11,19.98
			S7.313,8.385,13.725,8.385S25.34,13.568,25.34,19.98z"/>
		
			<linearGradient id="SVGID_2_" gradientUnits="userSpaceOnUse" x1="19.3789" y1="47.6076" x2="19.3789" y2="20.1737" gradientTransform="matrix(1 0 0 1 0 -13.91)">
			<stop  offset="0" style="stop-color:#E13F8C"/>
			<stop  offset="0.5035" style="stop-color:#9D2AD5"/>
			<stop  offset="1" style="stop-color:#27AAE1"/>
		</linearGradient>
		<path fill="url(#SVGID_2_)" d="M19.379,18.628c-0.471,0-0.84,0.369-0.84,0.84v1.024c0,0.451,0.369,0.84,0.84,0.84
			c0.451,0,0.84-0.369,0.84-0.84v-1.024C20.219,19.017,19.85,18.648,19.379,18.628z"/>
		
			<linearGradient id="SVGID_3_" gradientUnits="userSpaceOnUse" x1="16.3676" y1="47.6076" x2="16.3676" y2="20.1737" gradientTransform="matrix(1 0 0 1 0 -13.91)">
			<stop  offset="0" style="stop-color:#E13F8C"/>
			<stop  offset="0.5035" style="stop-color:#9D2AD5"/>
			<stop  offset="1" style="stop-color:#27AAE1"/>
		</linearGradient>
		<path fill="url(#SVGID_3_)" d="M16.388,15.821c-0.471,0-0.84,0.369-0.84,0.84l-0.041,6.658c0,0.451,0.369,0.84,0.84,0.84
			c0.451,0,0.84-0.369,0.84-0.84l0.041-6.658C17.207,16.19,16.839,15.821,16.388,15.821z"/>
		
			<linearGradient id="SVGID_4_" gradientUnits="userSpaceOnUse" x1="13.3665" y1="47.6076" x2="13.3665" y2="20.1737" gradientTransform="matrix(1 0 0 1 0 -13.91)">
			<stop  offset="0" style="stop-color:#E13F8C"/>
			<stop  offset="0.5035" style="stop-color:#9D2AD5"/>
			<stop  offset="1" style="stop-color:#27AAE1"/>
		</linearGradient>
		<path fill="url(#SVGID_4_)" d="M13.397,13.076c-0.471,0-0.84,0.369-0.84,0.84l-0.061,12.148c0,0.451,0.369,0.84,0.84,0.84
			c0.451,0,0.84-0.369,0.84-0.84l0.061-12.148C14.217,13.465,13.848,13.076,13.397,13.076z"/>
		
			<linearGradient id="SVGID_5_" gradientUnits="userSpaceOnUse" x1="9.208" y1="47.6076" x2="9.208" y2="20.1737" gradientTransform="matrix(1 0 0 1 0 -13.91)">
			<stop  offset="0" style="stop-color:#E13F8C"/>
			<stop  offset="0.5035" style="stop-color:#9D2AD5"/>
			<stop  offset="1" style="stop-color:#27AAE1"/>
		</linearGradient>
		<path fill="url(#SVGID_5_)" d="M10.734,12.994c-0.287-0.205-0.676-0.246-1.024-0.123c-0.492,0.184-0.942,0.471-1.332,0.819
			c-1.475,1.454-1.475,3.81-0.041,5.265c0.02,0.02,0.041,0.041,0.061,0.061l0.881,0.86c0.041,0.041,0.061,0.123,0,0.184
			l-0.881,0.819c-0.758,0.717-1.188,1.721-1.188,2.765c0,0.983,0.389,1.926,1.106,2.602c0.389,0.369,0.84,0.656,1.332,0.84
			c0.328,0.123,0.717,0.082,1.004-0.123c0.287-0.205,0.471-0.533,0.471-0.881l0.082-12.209
			C11.205,13.527,11.041,13.199,10.734,12.994z"/>
	</g>
	<rect x="0" y="0" fill="none" width="125" height="40"/>
</g>
</svg>
